<?xml version="1.0" standalone="no"?>
<!DOCTYPE svg PUBLIC "-//W3C//DTD SVG 20010904//EN"
 "http://www.w3.org/TR/2001/REC-SVG-20010904/DTD/svg10.dtd">
<svg version="1.0" xmlns="http://www.w3.org/2000/svg"
 width="512.000000pt" height="512.000000pt" viewBox="0 0 512.000000 512.000000"
 preserveAspectRatio="xMidYMid meet">

<g transform="translate(0.000000,512.000000) scale(0.100000,-0.100000)"
fill="#000000" stroke="none">
<path d="M0 2560 l0 -2560 2560 0 2560 0 0 2560 0 2560 -2560 0 -2560 0 0
-2560z m333 2319 c38 -42 36 -82 -7 -125 -35 -35 -62 -42 -99 -23 -74 38 -76
137 -3 173 40 21 74 13 109 -25z m4658 16 c6 -4 17 -23 25 -41 12 -29 12 -39
1 -66 -19 -46 -43 -63 -89 -63 -33 0 -46 7 -70 34 -25 28 -29 40 -24 69 12 76
88 109 157 67z m-2295 -107 c-3 -13 -6 -33 -6 -45 0 -22 -3 -23 -105 -23
l-105 0 0 38 c0 21 3 42 7 45 3 4 53 7 111 7 103 0 104 0 98 -22z m-1966 -63
c29 -47 68 -48 103 -4 24 31 25 31 62 18 36 -13 37 -15 32 -56 -3 -26 0 -49 8
-60 12 -16 18 -16 65 -4 28 7 52 12 54 10 39 -58 39 -58 11 -95 -38 -50 -31
-76 27 -94 47 -15 48 -16 48 -57 0 -40 -1 -42 -42 -55 -31 -9 -45 -20 -52 -40
-8 -24 -6 -32 19 -58 l28 -30 -19 -35 c-17 -33 -22 -36 -49 -29 -16 4 -44 7
-62 7 l-32 1 36 35 c54 52 78 113 77 196 -1 120 -63 219 -172 272 -46 23 -69
27 -127 26 -38 0 -83 -6 -99 -12 -16 -6 -30 -10 -32 -9 -1 2 2 24 7 50 11 48
11 48 76 57 6 0 21 -15 33 -34z m3787 4 c12 -12 7 -39 -8 -39 -5 0 -9 9 -9 21
0 18 -5 20 -42 17 -36 -3 -44 -7 -46 -26 -3 -21 -5 -22 -16 -7 -9 13 -17 14
-39 6 -16 -6 -25 -15 -22 -21 8 -13 -8 -13 -22 1 -12 12 -41 1 -63 -26 -10
-12 -10 -19 -2 -27 21 -21 13 -32 -9 -12 -20 18 -21 18 -50 -16 -34 -41 -35
-47 -11 -74 17 -20 17 -20 -7 -5 -14 9 -26 20 -28 26 -10 29 143 173 168 157
12 -7 89 17 89 28 0 12 104 10 117 -3z m-2062 -4 c-5 -2 -31 -6 -57 -10 -40
-5 -48 -10 -49 -28 l0 -22 -9 22 -9 21 -113 -24 c-183 -40 -173 -36 -170 -74
1 -19 8 -38 15 -42 8 -5 7 -8 -4 -8 -18 0 -29 28 -29 72 0 25 4 28 93 48 112
26 248 48 302 48 22 0 36 -1 30 -3z m434 -10 c141 -23 261 -55 261 -70 0 -15
214 -90 230 -80 5 3 10 1 10 -4 0 -17 -18 -14 -130 24 -57 19 -105 33 -106 32
-1 -1 -5 -13 -8 -27 -6 -24 -3 -26 100 -58 58 -18 104 -35 102 -37 -2 -2 -51
11 -108 30 -58 18 -165 46 -237 62 -73 15 -133 31 -133 35 0 6 123 -18 210
-42 23 -6 43 -10 45 -8 9 11 15 67 6 72 -12 8 -215 53 -256 58 -27 3 -31 0
-36 -32 l-6 -35 -2 37 c-1 35 -3 37 -38 43 -64 11 -69 13 -33 14 19 0 77 -6
129 -14z m1715 -16 c29 0 89 -45 131 -100 l38 -51 -29 -23 c-27 -21 -28 -25
-17 -54 17 -45 9 -38 -25 23 -55 97 -140 146 -254 146 -96 0 -176 -45 -229
-128 -16 -25 -29 -39 -29 -31 0 8 22 40 50 71 119 134 303 138 424 9 43 -47
44 -47 66 -31 25 19 24 22 -19 78 l-25 34 -19 -24 c-18 -22 -18 -16 -2 25 8
19 -48 50 -64 34 -8 -8 -14 -9 -19 -1 -4 6 -16 16 -27 23 -19 11 -18 12 5 6
14 -4 33 -7 44 -6z m-2054 -9 c0 -5 -17 -10 -38 -10 -43 0 -62 -14 -62 -47 0
-18 -6 -23 -25 -23 -22 0 -25 4 -25 39 l0 40 48 4 c94 7 102 7 102 -3z m237
-4 c1 -1 0 -19 -4 -39 -5 -31 -10 -37 -29 -37 -20 0 -24 5 -24 30 0 17 -4 30
-10 30 -5 0 -10 -13 -10 -29 0 -39 -9 -61 -26 -61 -22 0 -19 76 4 89 14 9 13
10 -10 11 -16 0 -28 4 -28 10 0 7 127 3 137 -4z m-1411 -11 c3 -8 15 -17 27
-21 30 -9 56 -45 56 -74 l0 -25 -17 25 c-33 48 -51 60 -89 59 -21 -1 -29 -3
-18 -6 11 -2 30 -6 42 -9 23 -4 53 -50 53 -79 0 -26 -55 -75 -85 -75 -41 0
-77 43 -74 88 2 21 0 42 -4 48 -10 18 4 54 22 54 10 0 26 7 37 15 25 19 43 19
50 0z m585 0 c0 -6 -9 -10 -20 -11 -11 -1 -42 -15 -70 -33 -54 -32 -71 -38
-71 -21 0 6 8 10 18 10 9 0 42 15 72 34 55 34 72 39 71 21z m1287 3 c-6 -18
-28 -21 -28 -4 0 9 7 16 16 16 9 0 14 -5 12 -12z m879 -15 c0 -22 -5 -28 -22
-28 -17 0 -22 6 -21 23 0 13 6 20 13 18 7 -3 15 -1 18 4 10 15 12 12 12 -17z
m673 12 c15 -17 5 -35 -20 -35 -22 0 -33 23 -17 39 15 15 22 14 37 -4z m-3628
-19 c4 -19 1 -22 -16 -18 -11 3 -15 7 -8 10 6 2 12 8 12 14 0 6 -7 7 -16 4 -8
-3 -12 -2 -9 4 11 18 33 10 37 -14z m1146 3 c2 -11 -25 -20 -105 -37 -126 -26
-143 -27 -143 -8 0 9 25 19 73 30 39 9 90 20 112 25 48 11 59 9 63 -10z m62 1
c0 -11 -2 -20 -4 -20 -2 0 -6 9 -9 20 -3 11 -1 20 4 20 5 0 9 -9 9 -20z m440
11 c0 -6 -4 -13 -10 -16 -5 -3 -10 1 -10 9 0 9 5 16 10 16 6 0 10 -4 10 -9z
m158 -11 c119 -25 149 -37 134 -52 -8 -8 -42 -4 -126 13 -96 19 -116 27 -116
41 0 22 -9 22 108 -2z m-2118 -22 c179 -76 231 -318 97 -456 -17 -18 -32 -38
-33 -45 0 -7 -2 -33 -2 -59 -2 -43 -5 -49 -34 -64 l-32 -16 -33 36 c-28 30
-40 36 -75 36 -35 0 -49 -6 -79 -36 -36 -35 -37 -36 -68 -20 -27 15 -31 21
-31 60 0 61 -22 79 -84 67 -47 -9 -48 -8 -67 23 -24 40 -24 42 6 68 14 12 25
31 26 42 0 15 6 9 19 -19 27 -61 84 -120 142 -149 43 -22 66 -26 132 -26 80 0
153 22 170 49 10 15 8 14 -48 -14 -68 -34 -169 -35 -241 -1 -59 27 -119 90
-147 154 -17 37 -20 60 -16 123 4 66 10 86 39 134 19 31 52 70 73 86 22 16 35
29 30 29 -24 0 -93 -73 -124 -132 -30 -55 -34 -72 -34 -133 l1 -70 -43 20
c-42 19 -43 22 -44 67 0 46 0 46 42 60 29 9 47 22 56 41 12 24 11 32 -9 67
l-23 41 31 30 c30 31 31 31 62 14 21 -10 40 -13 54 -8 12 4 31 8 42 9 11 1 43
7 70 12 62 12 116 5 175 -20z m2506 -16 c10 2 19 -3 21 -9 3 -7 -1 -13 -7 -13
-14 0 -120 59 -120 67 0 3 20 -7 45 -21 25 -15 52 -26 61 -24z m-852 16 c11
-42 7 -58 -14 -58 -14 0 -20 7 -20 24 0 52 23 75 34 34z m-974 -10 c0 -19 -2
-20 -10 -8 -13 19 -13 30 0 30 6 0 10 -10 10 -22z m178 2 c-12 -18 -13 -19
-20 -2 -6 15 -7 15 -8 -3 l-1 -20 -9 20 -9 20 0 -20 c-1 -17 -3 -17 -11 -5 -6
10 -10 11 -10 3 0 -9 -7 -10 -25 -3 -18 7 -25 6 -25 -3 0 -8 -3 -8 -9 2 -7 11
-10 10 -14 -5 -4 -15 -5 -14 -7 6 l-2 25 -8 -25 -8 -25 -1 28 -1 27 90 0 c88
0 90 -1 78 -20z m1811 -2 c0 -22 -1 -22 -9 -3 l-9 20 0 -20 c-1 -17 -3 -17
-11 -5 -9 13 -10 13 -11 0 0 -11 -2 -11 -6 -2 -4 10 -8 10 -19 1 -11 -9 -14
-7 -14 10 0 18 6 21 40 21 35 0 40 -3 39 -22z m70 0 c0 -22 -1 -22 -9 -3 -5
11 -9 14 -9 6 -1 -7 -7 -11 -15 -8 -8 3 -17 1 -20 -6 -2 -7 -5 -2 -5 11 -1 18
4 22 29 22 25 0 30 -4 29 -22z m91 0 c0 -16 -3 -19 -9 -10 -9 14 -32 13 -43
-3 -4 -6 -8 -1 -9 10 l0 20 -9 -20 c-8 -19 -9 -19 -9 3 -1 19 4 22 39 22 35 0
40 -3 40 -22z m234 6 c14 -5 14 -9 4 -23 -12 -14 -11 -15 5 -2 15 12 21 11 42
-9 70 -66 42 -180 -52 -211 -35 -11 -83 -5 -83 10 0 5 9 7 19 4 10 -3 28 0 39
6 15 8 22 8 25 -2 3 -6 6 0 6 15 1 42 11 58 37 58 19 0 24 5 24 24 0 19 -4 22
-23 19 -19 -4 -26 1 -37 26 -10 26 -18 31 -46 31 -27 0 -36 -6 -49 -30 -11
-21 -23 -30 -40 -30 -37 0 -35 -38 3 -42 21 -2 28 -9 30 -32 6 -46 -12 -51
-47 -11 -50 57 -38 131 28 180 34 24 81 32 115 19z m-2769 -22 c-3 -3 -11 0
-18 7 -9 10 -8 11 6 5 10 -3 15 -9 12 -12z m3315 8 c0 -5 -7 -10 -15 -10 -8 0
-15 5 -15 10 0 6 7 10 15 10 8 0 15 -4 15 -10z m-2545 -36 c-54 -19 -106 -34
-115 -34 -8 0 28 16 80 35 52 18 104 34 115 34 11 -1 -25 -16 -80 -35z m285
10 c-63 -13 -119 -23 -124 -21 -13 4 173 45 209 45 17 1 -22 -10 -85 -24z
m-950 9 c-1 -11 -26 -43 -34 -43 -8 0 -8 35 1 43 9 9 33 9 33 0z m3225 -23 c0
-9 -11 -16 -27 -18 -23 -3 -28 1 -28 18 0 17 5 21 28 18 16 -2 27 -9 27 -18z
m-1650 -30 c303 -34 629 -147 860 -299 135 -88 327 -252 421 -359 94 -106 50
-83 -74 40 -132 130 -233 212 -348 284 -44 26 -92 58 -109 69 -30 22 -333 145
-355 145 -7 0 -26 6 -43 14 -35 15 -151 38 -292 58 -52 7 -189 12 -325 12
-208 -1 -252 -4 -382 -27 -81 -14 -171 -34 -200 -43 -163 -52 -399 -161 -527
-244 -34 -22 -66 -40 -71 -40 -16 0 -216 -191 -308 -293 -46 -50 -116 -137
-155 -191 -85 -120 -103 -112 -21 10 99 147 308 368 449 475 275 208 677 364
1010 392 93 8 387 6 470 -3z m1077 -7 c36 -32 17 -83 -32 -83 -48 0 -64 36
-34 78 18 26 41 28 66 5z m-1997 -28 c-49 -19 -94 -34 -100 -34 -15 1 158 68
175 68 8 0 -25 -15 -75 -34z m2611 -20 c64 -42 77 -134 27 -187 -41 -43 -80
-61 -118 -54 -70 14 -121 81 -112 149 13 93 124 144 203 92z m-1669 -6 c54 -6
139 -18 188 -28 l90 -17 -3 -74 c-1 -40 -4 -76 -7 -78 -2 -2 -15 -2 -29 2 -24
6 -25 8 -19 70 l6 64 -51 11 c-114 24 -249 35 -447 34 -195 0 -277 -7 -428
-35 l-59 -11 4 -63 c3 -59 2 -63 -21 -69 -13 -3 -25 -4 -27 -2 -2 2 -5 37 -6
77 l-3 74 70 14 c178 33 251 40 442 41 111 1 246 -4 300 -10z m950 5 c-3 -3
-12 -4 -19 -1 -8 3 -5 6 6 6 11 1 17 -2 13 -5z m-2013 -19 c4 -11 -2 -15 -20
-15 -22 0 -133 -52 -176 -82 -9 -7 -21 -9 -25 -4 -10 10 18 30 111 78 77 41
101 46 110 23z m1744 -42 c60 -32 81 -48 73 -56 -7 -7 -16 -6 -28 5 -27 24
-145 78 -170 78 -25 0 -31 15 -10 23 19 8 46 -2 135 -50z m-2003 4 c-155 -89
-333 -227 -452 -350 -51 -53 -93 -93 -93 -89 0 16 250 253 320 304 89 64 240
158 255 158 5 0 -8 -11 -30 -23z m2125 8 c0 -8 -4 -15 -9 -15 -13 0 -22 16
-14 24 11 11 23 6 23 -9z m530 6 c0 -6 -17 -11 -37 -13 -33 -3 -39 -7 -45 -33
-6 -29 -6 -29 -5 5 2 33 5 35 42 41 22 3 41 7 43 8 1 0 2 -3 2 -8z m618 -34
c2 -16 -3 -35 -10 -44 -10 -13 -10 -17 0 -20 13 -5 17 -63 4 -63 -4 0 -8 12
-7 28 0 25 -3 27 -40 27 -34 0 -41 4 -43 22 -3 19 2 22 40 25 35 2 43 7 43 23
0 12 -9 22 -25 27 -23 6 -23 7 5 5 25 -2 31 -7 33 -30z m-2798 4 c0 -5 -26
-19 -57 -31 -134 -49 -260 -106 -365 -166 -120 -69 -166 -83 -109 -34 46 39
295 163 411 205 102 36 120 40 120 26z m1236 -11 c127 -44 244 -94 236 -102
-4 -4 -46 7 -93 26 -46 18 -115 43 -152 55 -37 13 -67 27 -67 32 0 13 9 12 76
-11z m749 -204 c44 -35 116 -102 160 -147 l80 -83 -103 95 c-130 118 -157 139
-319 256 -73 52 -133 96 -133 99 0 9 234 -154 315 -220z m-1100 178 c159 -20
165 -22 165 -46 0 -18 -4 -20 -32 -14 -173 35 -609 42 -791 13 -110 -17 -127
-16 -127 7 0 15 20 19 155 35 50 6 101 13 115 15 61 8 424 1 515 -10z m-885
-3 c0 -4 -41 -23 -90 -41 -105 -37 -257 -110 -352 -168 -37 -23 -70 -37 -73
-32 -11 17 270 164 420 219 89 33 95 35 95 22z m1267 -25 c126 -44 176 -66
170 -72 -3 -3 -47 10 -99 29 -51 19 -112 40 -135 46 -23 7 -45 16 -48 21 -10
16 7 12 112 -24z m975 20 c6 -8 8 -7 8 2 0 6 9 12 20 12 13 0 20 -7 20 -19 0
-25 -18 -37 -33 -22 -7 7 -14 7 -24 0 -9 -8 -17 -8 -27 0 -8 6 -18 11 -22 10
-34 -6 -74 3 -74 16 0 12 13 15 63 14 34 -1 65 -7 69 -13z m388 -11 c0 -28
-12 -32 -30 -10 -14 16 -6 35 16 35 8 0 14 -10 14 -25z m60 19 c0 -15 -22 -44
-31 -39 -18 12 -10 45 11 45 11 0 20 -3 20 -6z m-3160 -18 c0 -5 -100 -66
-108 -66 -6 0 98 70 105 70 2 0 3 -2 3 -4z m2160 -27 c28 -17 49 -33 47 -36
-5 -4 -107 56 -107 63 0 8 11 3 60 -27z m-1695 3 c-6 -5 -46 -21 -90 -37 -91
-31 -247 -107 -331 -161 -30 -20 -58 -34 -60 -31 -15 15 244 153 381 203 94
34 116 40 100 26z m1282 -26 c131 -46 133 -46 133 -61 0 -12 -235 67 -254 86
-19 18 24 9 121 -25z m825 9 c-2 -14 -6 -25 -8 -25 -2 0 -4 11 -4 25 0 14 4
25 9 25 4 0 6 -11 3 -25z m-2857 -3 c-3 -3 -11 0 -18 7 -9 10 -8 11 6 5 10 -3
15 -9 12 -12z m765 -22 c0 -11 -5 -20 -11 -20 -44 0 -337 -139 -453 -215 -25
-17 -26 -17 -26 2 0 40 304 198 488 252 1 1 2 -8 2 -19z m1247 -21 c112 -39
143 -56 143 -74 0 -18 -5 -18 -33 -3 -12 6 -65 26 -117 44 -58 20 -96 39 -98
49 -5 21 4 19 105 -16z m-1863 -10 c-8 -14 -34 -11 -34 4 0 8 3 17 7 20 9 9
34 -13 27 -24z m2177 2 c17 -18 29 -40 29 -56 0 -38 -50 -85 -90 -85 -44 0
-80 39 -80 85 0 79 84 112 141 56z m233 -2 c-8 -14 -34 -11 -34 4 0 8 3 17 7
20 9 9 34 -13 27 -24z m-1524 -24 c0 -25 -4 -45 -10 -45 -11 0 -14 73 -3 83
11 12 13 8 13 -38z m630 -6 c0 -28 -4 -39 -15 -39 -11 0 -15 11 -15 38 0 21 3
42 6 45 14 13 24 -6 24 -44z m1278 16 c-3 -3 -9 2 -12 12 -6 14 -5 15 5 6 7
-7 10 -15 7 -18z m-2844 -21 c8 -32 1 -41 -19 -24 -23 19 -78 -22 -230 -172
-71 -70 -134 -126 -140 -125 -25 9 336 346 371 347 7 0 15 -12 18 -26z m1026
11 c0 -10 -11 -15 -35 -15 -56 0 -41 25 18 29 9 0 17 -6 17 -14z m380 2 c0
-18 -342 -17 -348 1 -3 9 39 12 172 12 137 0 176 -3 176 -13z m118 -4 c2 -9
-10 -13 -42 -13 -43 0 -63 10 -49 24 12 11 86 2 91 -11z m1078 -66 c106 -90
296 -286 288 -299 -3 -4 -34 25 -70 65 -67 75 -172 171 -262 239 -41 32 -55
38 -66 29 -10 -8 -16 -9 -21 -2 -7 12 11 51 23 51 5 0 53 -38 108 -83z m760
68 c-3 -9 4 -21 19 -31 33 -22 32 -34 -11 -80 l-36 -39 31 41 c31 41 39 64 23
64 -20 0 -43 27 -36 43 3 9 8 17 11 17 3 0 3 -7 -1 -15z m-2466 -5 c0 -5 -9
-10 -20 -10 -11 0 -20 5 -20 10 0 6 9 10 20 10 11 0 20 -4 20 -10z m730 0 c0
-5 -9 -10 -20 -10 -11 0 -20 5 -20 10 0 6 9 10 20 10 11 0 20 -4 20 -10z
m-832 -71 c-7 -53 -91 -55 -104 -2 -7 28 20 65 42 56 8 -3 14 0 14 6 0 7 12 1
26 -12 17 -16 25 -32 22 -48z m932 61 c0 -5 -4 -10 -10 -10 -5 0 -10 5 -10 10
0 6 5 10 10 10 6 0 10 -4 10 -10z m657 -62 c150 -104 408 -346 389 -365 -3 -3
-25 16 -48 43 -90 105 -249 243 -369 320 -37 23 -70 48 -75 55 -12 21 22 3
103 -53z m730 46 c-3 -3 -12 -4 -19 -1 -8 3 -5 6 6 6 11 1 17 -2 13 -5z
m-1373 -27 c13 -21 -13 -51 -36 -42 -24 10 -29 32 -11 50 18 18 32 16 47 -8z
m-1904 -110 c-149 -146 -273 -292 -341 -402 -27 -44 -49 -73 -49 -65 0 22 102
170 197 287 81 99 288 303 307 303 6 0 -45 -55 -114 -123z m2190 98 c16 -8 30
-25 32 -36 2 -12 14 -30 28 -40 31 -22 86 -37 76 -20 -4 6 -1 11 7 11 25 0 26
-12 5 -55 l-21 -43 -88 54 c-49 30 -93 54 -99 54 -5 0 -10 2 -10 5 0 10 32 85
37 85 2 0 17 -7 33 -15z m694 -157 c82 -81 147 -150 144 -153 -3 -3 -81 69
-173 161 -92 91 -157 160 -144 153 13 -7 91 -79 173 -161z m187 155 c13 -16
12 -17 -3 -4 -10 7 -18 15 -18 17 0 8 8 3 21 -13z m-2381 -3 c0 -5 9 -10 20
-10 22 0 27 -15 8 -24 -9 -3 -8 -8 5 -16 18 -11 18 -13 -3 -32 -23 -21 -53
-18 -44 6 3 9 -3 17 -15 21 -12 3 -21 11 -21 17 0 5 7 8 15 4 11 -4 15 1 15
19 0 14 5 25 10 25 6 0 10 -4 10 -10z m1371 -7 c11 -15 11 -16 -1 -5 -21 18
-47 15 -64 -10 -9 -12 -16 -18 -16 -14 0 16 33 46 50 46 10 0 24 -8 31 -17z
m481 -35 c42 -29 115 -86 163 -126 89 -77 211 -210 200 -220 -3 -3 -27 19 -52
49 -87 100 -216 214 -340 298 -35 23 -63 44 -63 46 0 12 22 1 92 -47z m928 48
c0 -2 -8 -10 -17 -17 -16 -13 -17 -12 -4 4 13 16 21 21 21 13z m-182 -23 c-2
-10 -12 -18 -23 -18 -11 0 -21 8 -23 18 -3 13 3 17 23 17 20 0 26 -4 23 -17z
m-738 -72 c146 -103 344 -301 323 -322 -7 -7 -47 26 -129 109 -102 102 -204
188 -303 253 -15 9 -22 20 -17 28 9 14 17 9 126 -68z m445 59 c10 -11 16 -20
13 -20 -3 0 -13 9 -23 20 -10 11 -16 20 -13 20 3 0 13 -9 23 -20z m-2726 -5
c49 -25 57 -90 16 -130 -40 -41 -105 -33 -130 16 -22 42 -18 67 14 100 33 32
58 36 100 14z m1764 -22 c7 2 11 11 11 20 -1 9 2 14 7 11 14 -8 10 -34 -6 -40
-21 -9 -45 14 -37 34 6 14 7 13 10 -6 2 -13 9 -21 15 -19z m-413 16 c8 -4 42
-13 75 -19 33 -7 103 -26 155 -42 130 -42 342 -149 326 -165 -3 -3 -17 4 -33
15 -115 81 -460 204 -531 190 -9 -2 28 -14 83 -27 55 -13 132 -35 170 -48 88
-32 232 -104 265 -133 21 -18 17 -17 -20 5 -424 249 -959 257 -1374 20 -85
-48 -117 -55 -44 -9 120 76 378 174 459 174 10 0 19 5 19 10 0 13 -2 13 -80
-5 -148 -35 -309 -100 -423 -172 -21 -13 -41 -23 -43 -20 -8 7 18 23 126 80
113 60 250 109 355 128 36 7 65 16 65 19 0 10 431 9 450 -1z m881 -76 c95 -67
329 -289 329 -311 0 -25 -30 -11 -62 29 -49 62 -222 213 -316 276 -56 39 -78
59 -70 65 20 12 19 12 119 -59z m989 33 c0 -2 -8 -10 -17 -17 -16 -13 -17 -12
-4 4 13 16 21 21 21 13z m-2952 -18 c7 -7 12 -8 12 -2 0 5 5 2 10 -6 6 -10 10
-11 10 -2 0 6 7 12 15 12 20 0 19 -14 -1 -31 -14 -12 -14 -14 6 -21 12 -4 19
-12 15 -17 -3 -6 -12 -8 -19 -5 -7 3 -16 -3 -20 -12 -6 -15 -9 -15 -28 5 -17
19 -18 25 -7 31 11 7 10 12 -4 28 -26 29 -17 48 11 20z m880 -18 l-5 -30 61 0
c72 0 213 -24 296 -49 32 -10 62 -16 65 -13 3 3 5 16 5 29 0 15 6 23 16 23 13
0 15 -7 11 -33 l-5 -33 96 -42 c100 -44 140 -68 130 -78 -3 -3 -48 15 -100 40
-184 89 -333 126 -545 133 -79 3 -143 10 -143 14 0 5 18 9 41 9 24 0 47 7 57
16 15 15 14 16 -6 10 -18 -6 -22 -3 -22 13 0 16 6 21 26 21 23 0 26 -3 22 -30z
m792 -22 c50 -29 90 -55 90 -59 0 -9 -49 -29 -72 -29 -20 0 -148 66 -148 76 0
9 30 64 36 64 2 0 45 -24 94 -52z m1384 26 c8 -21 -1 -34 -25 -34 -14 0 -19 7
-19 25 0 29 34 36 44 9z m-154 -9 c-7 -8 -20 -15 -29 -15 -11 0 -8 5 9 14 33
19 35 19 20 1z m-3446 -117 c-67 -68 -159 -170 -204 -228 -114 -145 -142 -169
-41 -35 99 133 332 385 356 385 5 0 -45 -55 -111 -122z m1295 29 c0 -55 -3
-75 -9 -62 -12 29 -12 158 0 150 6 -3 10 -43 9 -88z m2021 58 c0 -9 -9 -15
-22 -14 -17 1 -19 2 -5 6 9 2 17 9 17 14 0 5 2 9 5 9 3 0 5 -7 5 -15z m-2065
-16 c-4 -5 -17 -9 -30 -9 -61 0 -264 -62 -372 -115 -116 -55 -139 -64 -128
-45 19 31 247 126 380 159 119 29 163 32 150 10z m-1915 -9 c33 -33 24 -40
-45 -40 -37 0 -65 4 -65 10 0 19 40 50 65 50 14 0 34 -9 45 -20z m790 17 c0
-1 -44 -48 -98 -103 -106 -108 -211 -234 -258 -308 -16 -25 -32 -46 -36 -46
-21 0 -1 35 77 135 106 137 315 350 315 322z m843 -13 c9 -9 -4 -35 -14 -28
-5 3 -9 -1 -10 -8 0 -12 -17 18 -18 35 -1 8 33 10 42 1z m677 -28 c41 -7 116
-27 167 -44 96 -32 259 -109 250 -118 -3 -3 -24 5 -48 17 -191 97 -349 139
-551 146 -90 4 -148 10 -148 16 0 13 227 1 330 -17z m-1480 6 c0 -4 -50 -58
-110 -120 -93 -96 -148 -162 -254 -307 -11 -15 -17 -17 -26 -8 -9 8 -2 25 30
73 122 180 360 419 360 362z m1084 0 c3 -5 -28 -14 -67 -20 -79 -14 -207 -50
-220 -61 -4 -4 -4 -19 1 -32 17 -44 22 -79 14 -79 -11 0 -42 77 -42 102 0 24
88 54 265 91 34 8 44 7 49 -1z m-1598 -27 c17 -13 11 -14 -61 -14 -72 0 -78 1
-61 14 11 8 38 15 61 15 23 0 50 -7 61 -15z m1832 -110 c42 -4 105 -13 140
-21 35 -8 67 -14 72 -14 4 0 13 23 20 50 7 28 17 53 23 57 10 6 8 -16 -9 -88
-5 -24 -1 -27 67 -52 81 -30 159 -73 159 -87 0 -16 -18 -11 -73 19 -250 141
-650 145 -925 9 -78 -38 -103 -44 -87 -18 9 14 98 59 160 80 54 19 56 22 39
104 -11 58 11 37 26 -24 7 -27 16 -50 20 -50 5 0 37 6 72 14 35 8 93 17 131
21 l67 7 0 52 c0 74 14 80 18 8 l3 -60 77 -7z m-1278 107 c0 -4 -45 -52 -101
-107 -103 -102 -171 -192 -238 -315 -33 -61 -40 -68 -54 -57 -16 11 -12 20 41
102 67 102 196 255 280 332 55 51 72 61 72 45z m3263 -9 c-29 -2 -78 -2 -110
0 -32 2 -8 3 52 3 61 0 87 -1 58 -3z m110 0 c-7 -2 -21 -2 -30 0 -10 3 -4 5
12 5 17 0 24 -2 18 -5z m-4231 -24 c-5 -21 -33 -39 -59 -39 -22 0 -63 31 -63
48 0 5 28 8 63 7 47 -2 61 -6 59 -16z m1220 -10 c50 -26 316 -283 359 -349
l30 -44 -23 -9 c-18 -6 -28 -1 -60 35 l-39 43 25 -52 25 -51 -33 -25 -33 -26
-33 32 c-19 18 -29 25 -23 17 6 -8 14 -31 18 -50 l7 -35 -29 30 c-15 17 -25
26 -20 21 14 -19 7 -27 -13 -16 -17 9 -20 8 -20 -9 0 -11 8 -25 18 -30 16 -10
16 -10 0 -11 -11 0 -15 -5 -12 -15 4 -9 -6 -21 -27 -34 -30 -19 -33 -19 -46
-3 -12 16 -13 15 -11 -3 2 -12 -2 -19 -9 -18 -9 2 -11 -6 -7 -25 4 -21 -3 -40
-29 -80 -47 -70 -53 -100 -29 -156 17 -37 18 -44 5 -39 -13 5 -14 3 -3 -18 7
-13 24 -39 38 -58 30 -40 20 -51 -49 -51 -42 0 -50 4 -82 40 -20 21 -48 62
-62 90 l-26 51 42 -21 41 -21 -44 63 c-54 75 -67 99 -47 81 28 -27 28 -11 -1
45 -48 94 -75 249 -75 437 0 158 0 161 28 208 51 87 147 108 249 56z m775 9
c-3 -8 -6 -5 -6 6 -1 11 2 17 5 13 3 -3 4 -12 1 -19z m1070 11 c47 -17 83 -60
100 -119 35 -120 -5 -489 -66 -608 -25 -50 -26 -59 -4 -41 15 13 15 12 3 -11
-7 -14 -30 -49 -52 -78 l-39 -53 36 16 c34 13 37 13 31 -1 -3 -9 -6 -19 -6
-24 0 -4 -20 -35 -45 -69 l-45 -61 -54 0 c-89 0 -91 4 -46 68 41 57 52 84 24
61 -10 -8 -8 0 7 25 29 50 21 101 -26 173 -33 49 -35 58 -26 85 11 31 11 31
-10 12 -20 -18 -20 -18 -13 11 6 25 5 28 -7 19 -8 -5 -20 -9 -26 -8 -7 1 -18
2 -25 3 -6 0 -9 4 -6 7 4 3 -3 15 -14 26 -15 15 -17 23 -9 31 18 18 13 29 -10
22 -19 -6 -20 -5 -9 15 13 25 2 22 -32 -8 -16 -14 -18 -13 -18 4 0 11 7 31 17
44 14 22 13 22 -15 -4 l-32 -29 -35 19 c-19 10 -35 22 -35 27 0 4 11 30 25 57
14 28 23 50 21 50 -3 0 -19 -20 -37 -45 -18 -25 -38 -45 -45 -45 -26 0 -25 22
3 63 37 55 263 287 313 322 72 50 148 67 207 44z m821 -36 l31 -47 -22 -19
c-29 -25 -132 -98 -180 -127 l-38 -22 -25 23 c-13 12 -24 28 -24 35 0 20 -18
26 -40 14 -24 -13 -20 -37 11 -81 l19 -27 -76 -47 c-41 -26 -76 -46 -78 -44
-1 2 -13 19 -25 37 l-23 33 24 27 c14 15 29 35 34 44 9 16 360 248 375 248 4
0 20 -21 37 -47z m-2011 15 c-3 -8 -6 -5 -6 6 -1 11 2 17 5 13 3 -3 4 -12 1
-19z m20 0 c-3 -8 -6 -5 -6 6 -1 11 2 17 5 13 3 -3 4 -12 1 -19z m350 0 c-3
-8 -6 -5 -6 6 -1 11 2 17 5 13 3 -3 4 -12 1 -19z m-2040 -10 c-3 -8 -6 -5 -6
6 -1 11 2 17 5 13 3 -3 4 -12 1 -19z m91 1 c4 -21 -26 -51 -46 -47 -21 4 -36
32 -29 52 9 23 70 18 75 -5z m1282 -4 c0 -8 -161 -86 -171 -83 -6 2 27 22 73
46 81 41 98 47 98 37z m-1322 -56 c25 -2 25 -2 4 -6 -24 -5 -62 21 -62 41 0 6
7 0 16 -12 8 -12 27 -23 42 -23z m3794 9 c-13 -13 -42 -3 -42 14 0 9 3 9 11
-2 9 -13 12 -13 22 3 7 10 14 12 16 6 2 -6 -1 -15 -7 -21z m-3922 12 c0 -5
-10 -10 -22 -10 -19 0 -20 2 -8 10 19 13 30 13 30 0z m4000 -9 c0 -11 -70 -45
-77 -37 -5 5 56 46 70 46 4 0 7 -4 7 -9z m88 -11 c12 0 13 -3 5 -11 -6 -6 -9
-17 -7 -23 2 -6 -6 -11 -21 -11 -16 0 -23 5 -21 12 3 7 1 15 -5 19 -6 3 -3 11
8 19 10 8 20 9 21 4 2 -5 11 -9 20 -9z m-3378 -20 c22 -11 40 -23 40 -26 0 -3
-4 -3 -9 1 -5 3 -20 1 -33 -4 -13 -5 -32 -12 -43 -16 -17 -6 -14 -9 19 -20 41
-14 63 -31 54 -40 -3 -4 -21 3 -39 14 -45 28 -87 26 -122 -4 -33 -29 -48 -64
-41 -96 5 -22 4 -23 -9 -6 -14 16 -15 16 -21 1 -5 -14 -9 -15 -19 -5 -9 9 -7
16 9 29 12 9 29 31 37 47 21 42 43 59 115 85 41 15 60 26 53 33 -6 6 -17 4
-32 -7 -33 -23 -40 -20 -27 9 14 30 18 31 68 5z m2505 -18 c19 -14 19 -14 -5
-7 -14 5 -44 9 -67 9 -49 1 -52 3 -20 15 26 11 64 4 92 -17z m-3345 -44 c0
-15 -9 -37 -20 -48 -19 -19 -20 -33 -20 -240 0 -213 -1 -220 -20 -220 -19 0
-20 7 -20 211 l0 210 -35 33 c-34 32 -42 57 -29 90 9 24 24 19 24 -7 0 -13 9
-32 20 -42 18 -17 21 -17 45 -1 18 12 25 25 25 49 1 30 1 31 15 13 8 -11 15
-32 15 -48z m3904 5 c-9 -7 -21 -10 -26 -7 -5 3 -14 1 -21 -4 -9 -7 -201 -126
-289 -179 -5 -2 -8 -2 -8 1 0 2 46 33 103 67 56 35 126 80 155 100 30 21 63
36 77 35 22 -1 23 -2 9 -13z m129 -46 c38 -66 43 -82 28 -91 -10 -7 -81 116
-81 139 0 29 16 14 53 -48z m-3933 25 l-21 -28 21 -57 21 -57 -37 -66 c-20
-36 -50 -98 -65 -138 -16 -39 -28 -65 -29 -59 0 24 49 144 85 204 l35 60 -20
39 c-11 22 -20 50 -20 62 0 26 25 68 41 68 5 0 0 -13 -11 -28z m3265 -6 c0
-36 -26 -56 -49 -37 -16 14 -22 52 -9 65 4 4 19 6 33 4 20 -2 25 -8 25 -32z
m-1365 -6 c0 -5 -7 -10 -15 -10 -8 0 -15 5 -15 10 0 6 7 10 15 10 8 0 15 -4
15 -10z m280 -11 c30 -6 60 -16 65 -21 10 -10 5 -9 -59 9 -11 3 -72 12 -135
19 l-116 13 95 -4 c52 -2 120 -9 150 -16z m-2042 -13 c4 -21 -14 -37 -35 -29
-14 5 -18 35 -6 47 12 12 38 1 41 -18z m1562 -1 c0 -8 -7 -15 -15 -15 -8 0
-15 7 -15 15 0 8 7 15 15 15 8 0 15 -7 15 -15z m2081 -92 l50 -92 -23 -12
c-13 -6 -20 -8 -16 -4 4 4 -8 29 -26 54 -40 55 -69 119 -61 139 10 25 26 7 76
-85z m107 76 c2 -9 -9 -24 -24 -34 -15 -9 -23 -11 -19 -4 6 9 4 11 -7 6 -27
-10 -29 5 -6 30 24 26 51 27 56 2z m243 9 c0 -7 0 -105 0 -218 -1 -178 -15
-359 -28 -346 -2 2 -13 41 -24 87 -14 61 -22 136 -26 270 -3 103 -3 194 0 203
8 20 77 23 78 4z m-3419 -15 c25 -22 23 -59 -4 -77 -31 -22 -54 -20 -72 6 -21
30 -20 44 4 68 24 24 47 25 72 3z m918 -3 c-8 -5 -22 -10 -30 -10 -13 0 -13 1
0 10 8 5 22 10 30 10 13 0 13 -1 0 -10z m127 -27 c-3 -10 -5 -4 -5 12 0 17 2
24 5 18 2 -7 2 -21 0 -30z m593 17 c25 -10 36 -19 25 -19 -23 1 -107 37 -85
38 8 0 35 -9 60 -19z m-301 -15 c15 -15 14 -16 -14 -10 -25 5 -27 4 -12 -5 29
-19 9 -30 -53 -30 -76 0 -95 7 -78 28 11 13 10 14 -10 8 -33 -11 -26 3 11 20
40 18 134 12 156 -11z m162 -42 c16 -3 31 -9 34 -13 2 -4 -15 -3 -38 3 -42 9
-43 10 -38 46 l6 36 3 -33 c3 -27 8 -34 33 -39z m-651 42 c0 -8 -7 -15 -15
-15 -8 0 -15 7 -15 15 0 8 7 15 15 15 8 0 15 -7 15 -15z m1662 -67 c46 -59 28
-45 -32 25 -29 34 -41 51 -26 37 15 -14 41 -42 58 -62z m-3126 36 c18 -14 18
-14 -6 -3 -31 14 -36 19 -24 19 6 0 19 -7 30 -16z m1664 -3 c0 -5 -12 -11 -27
-14 -16 -3 -37 -9 -48 -13 -12 -4 -17 -3 -12 2 5 5 25 14 45 20 20 7 38 12 40
13 1 1 2 -3 2 -8z m1557 -26 c2 -6 -6 -16 -18 -23 -28 -18 -49 -1 -29 23 14
17 41 17 47 0z m-3072 -37 c47 -23 85 -46 85 -50 0 -4 -13 -29 -29 -55 -16
-27 -41 -76 -56 -111 -15 -34 -30 -60 -33 -58 -2 3 19 52 46 110 32 66 46 106
38 106 -7 0 -35 -47 -62 -104 l-50 -104 -74 29 c-41 17 -79 35 -85 40 -12 12
102 239 121 239 7 0 52 -19 99 -42z m3377 31 c31 -17 50 -71 37 -108 -12 -33
-53 -61 -89 -61 -35 0 -80 53 -80 93 0 62 76 106 132 76z m-1982 -3 c0 -2 -7
-6 -15 -10 -8 -3 -15 -1 -15 4 0 6 7 10 15 10 8 0 15 -2 15 -4z m330 -9 c41 1
93 2 115 3 50 2 201 -41 280 -80 142 -69 322 -213 387 -308 28 -42 22 -38 -58
38 -92 88 -180 153 -224 165 -24 7 -23 5 10 -31 l35 -38 -38 32 c-63 53 -54
36 25 -46 142 -149 219 -268 217 -337 0 -29 -1 -28 -13 10 -25 80 -61 132
-150 220 -112 112 -173 165 -221 195 l-37 23 12 -24 c8 -13 35 -52 62 -87 26
-35 48 -68 48 -73 0 -21 -31 -19 -116 6 -246 71 -465 71 -677 -1 -75 -26 -112
-30 -122 -14 -6 10 59 114 97 157 17 18 18 21 4 19 -28 -4 -115 -76 -226 -186
-111 -111 -160 -187 -160 -252 -1 -29 -2 -31 -12 -14 -27 48 38 164 183 326
57 62 97 110 89 105 -8 -4 -28 -17 -45 -28 l-30 -20 29 31 c35 38 31 40 -21
10 -63 -36 -159 -116 -219 -181 -45 -50 -53 -55 -38 -27 31 56 165 183 264
248 147 97 366 179 440 165 19 -4 69 -6 110 -6z m337 7 c-3 -3 -12 -4 -19 -1
-8 3 -5 6 6 6 11 1 17 -2 13 -5z m883 -55 c25 -33 50 -63 56 -67 10 -7 48 -92
42 -97 -2 -1 -13 -5 -24 -9 -18 -5 -27 2 -53 43 -18 27 -39 55 -47 62 -8 7
-20 22 -25 33 -6 12 5 3 25 -19 19 -22 35 -44 36 -48 0 -5 5 -5 10 -2 6 4 7
11 4 17 -4 7 -2 8 4 4 24 -15 11 18 -26 63 -59 73 -65 81 -56 81 5 0 29 -28
54 -61z m776 9 c5 -18 14 -32 21 -31 17 3 4 -33 -21 -56 -12 -11 -71 -50 -130
-86 -112 -67 -158 -81 -151 -46 2 10 -8 30 -21 45 l-25 26 31 18 c17 9 84 49
148 89 64 40 122 72 127 73 6 0 15 -15 21 -32z m-3362 -74 c64 -30 118 -59
121 -64 3 -5 -20 -51 -51 -102 -31 -51 -53 -84 -50 -73 6 18 5 18 -8 5 -30
-31 -101 -177 -136 -284 -23 -68 -43 -112 -52 -114 -9 -2 -65 13 -126 33 -83
27 -112 41 -117 55 -4 11 -17 23 -30 26 l-24 6 51 146 c58 168 141 342 163
342 20 0 19 -13 -5 -57 -38 -72 -22 -154 40 -206 64 -54 149 -40 198 33 31 45
27 127 -6 163 -12 13 -22 28 -22 35 0 6 -7 9 -16 5 -13 -5 -12 -8 5 -27 27
-29 43 -74 35 -100 -7 -22 -53 -76 -65 -76 -4 0 6 13 22 29 50 51 35 122 -34
158 -18 9 -26 18 -19 20 17 7 15 43 -4 50 -21 8 -35 -16 -23 -39 11 -20 -5
-32 -32 -26 -15 3 -59 -74 -59 -104 0 -31 53 -80 96 -88 l39 -8 -38 -1 c-32
-1 -45 5 -73 33 -40 40 -45 90 -16 144 23 43 101 142 112 142 5 0 60 -25 124
-56z m2789 -43 c40 -74 35 -109 -6 -44 -52 82 -62 113 -38 113 3 0 23 -31 44
-69z m50 23 c-2 -13 -23 -17 -23 -4 0 6 -5 8 -12 4 -6 -4 -8 -3 -5 4 8 12 43
9 40 -4z m-276 -151 c145 -216 202 -408 210 -705 7 -222 -14 -343 -90 -537
l-41 -104 28 -23 c28 -25 20 -32 -17 -13 -18 10 -24 8 -44 -15 -27 -32 -29
-53 -6 -78 17 -19 16 -19 -8 -13 -22 5 -30 0 -61 -47 -43 -65 -185 -228 -198
-228 -17 0 -11 9 61 93 96 111 142 180 210 317 60 123 85 192 121 335 19 76
22 117 22 270 0 309 -57 513 -205 732 -27 40 -49 77 -49 83 0 24 18 5 67 -67z
m430 57 c-3 -11 -1 -20 5 -20 5 0 7 -4 4 -9 -3 -5 0 -11 8 -14 29 -11 9 -40
-45 -63 -30 -13 -59 -23 -65 -24 -11 0 -51 77 -43 84 5 5 132 66 138 66 2 0 1
-9 -2 -20z m-2815 -67 c-86 -126 -148 -277 -183 -446 -27 -125 -32 -397 -10
-517 21 -116 67 -253 131 -385 66 -138 115 -211 218 -324 40 -44 68 -82 63
-85 -12 -8 -126 114 -195 207 -49 66 -61 77 -79 71 l-22 -7 20 23 c20 22 20
22 -1 58 -12 20 -27 38 -33 40 -6 2 0 -13 13 -33 22 -32 24 -39 11 -51 -19
-19 -37 -14 -56 16 -15 23 -15 26 0 44 15 18 15 18 -6 7 -32 -16 -29 3 4 27
l26 19 -37 92 c-69 171 -88 264 -93 466 -6 197 5 285 52 450 30 103 117 287
171 360 51 67 55 41 6 -32z m-762 47 c0 -5 -2 -10 -4 -10 -3 0 -8 5 -11 10 -3
6 -1 10 4 10 6 0 11 -4 11 -10z m397 -4 c-8 -21 21 -56 48 -56 16 0 29 9 39
28 14 25 15 25 16 5 0 -20 -41 -63 -61 -63 -4 0 -20 10 -35 23 -22 19 -26 29
-20 50 3 15 9 27 12 27 3 0 4 -6 1 -14z m71 -9 c2 -9 -4 -20 -13 -23 -20 -8
-50 19 -40 36 10 17 49 8 53 -13z m2834 11 c-8 -8 -6 -18 8 -38 11 -15 24 -39
30 -54 5 -14 15 -26 22 -26 6 0 3 -7 -8 -15 -10 -8 -26 -14 -34 -14 -12 0 -11
2 3 10 9 6 15 15 11 21 -4 7 -10 5 -16 -3 -8 -11 -11 -11 -15 -1 -2 7 -10 18
-17 25 -7 6 -17 27 -24 44 -10 31 -9 34 16 48 33 18 40 19 24 3z m-907 -28
c10 -11 16 -20 13 -20 -3 0 -13 9 -23 20 -10 11 -16 20 -13 20 3 0 13 -9 23
-20z m766 -108 c48 -84 104 -218 113 -272 4 -19 -9 6 -28 55 -41 111 -81 191
-135 272 -23 34 -41 66 -41 70 1 15 48 -50 91 -125z m193 93 c27 -49 15 -54
-13 -5 -12 22 -19 40 -14 40 5 0 17 -16 27 -35z m-2574 -27 c-40 -67 -124
-241 -140 -291 -6 -21 -14 -36 -16 -34 -7 6 44 144 79 212 35 70 94 165 103
165 3 0 -9 -24 -26 -52z m-826 -42 c-15 -36 -29 -64 -31 -62 -2 2 8 34 23 70
14 37 28 65 31 63 2 -3 -8 -34 -23 -71z m3982 19 c33 -77 29 -93 -6 -20 -30
63 -34 75 -24 75 3 0 16 -25 30 -55z m-3830 -1 c17 7 18 11 -6 -52 -21 -54
-29 -161 -10 -132 5 8 10 23 10 32 0 24 49 133 56 125 3 -3 -15 -66 -40 -140
-61 -179 -73 -236 -87 -408 -18 -232 16 -537 74 -655 23 -47 22 -50 -8 -56
-17 -2 -24 9 -46 77 -79 239 -85 662 -13 909 18 65 18 86 -3 86 -30 0 -123 33
-123 44 0 6 21 54 46 107 l46 97 45 -20 c24 -11 51 -17 59 -14z m71 10 c-9 -9
-28 6 -21 18 4 6 10 6 17 -1 6 -6 8 -13 4 -17z m1701 19 c-10 -2 -28 -2 -40 0
-13 2 -5 4 17 4 22 1 32 -1 23 -4z m175 0 c-13 -2 -35 -2 -50 0 -16 2 -5 4 22
4 28 0 40 -2 28 -4z m1198 -25 c6 1 8 -2 4 -8 -8 -13 -22 -4 -35 23 -11 22
-11 22 5 2 9 -11 21 -19 26 -17z m683 -67 c26 -55 45 -104 42 -109 -3 -5 -35
-18 -71 -27 -36 -10 -67 -21 -69 -24 -2 -3 7 -47 19 -96 60 -237 59 -578 -2
-840 -23 -97 -40 -136 -57 -129 -12 5 -13 11 -1 43 47 135 80 581 56 751 -18
120 -54 252 -102 372 -23 57 -43 109 -46 116 -3 6 1 12 10 12 15 0 56 -83 78
-160 l14 -45 3 41 c2 24 -5 65 -16 95 -38 103 -36 97 -17 74 16 -20 16 -20 53
2 20 11 42 21 48 22 6 1 32 -44 58 -98z m-2147 83 c-3 -3 -12 -4 -19 -1 -8 3
-5 6 6 6 11 1 17 -2 13 -5z m326 -1 c-7 -2 -19 -2 -25 0 -7 3 -2 5 12 5 14 0
19 -2 13 -5z m1540 -5 c3 -7 12 -30 21 -50 13 -31 14 -38 3 -38 -8 0 -19 17
-26 38 -7 20 -15 43 -17 50 -3 6 -1 12 4 12 5 0 12 -6 15 -12z m-3819 -47 c-3
-14 -11 -42 -17 -61 l-10 -35 -14 50 c-19 76 -18 82 17 77 26 -4 29 -7 24 -31z
m3746 4 c-14 -8 -29 -14 -35 -14 -5 0 1 6 15 14 14 8 30 14 35 14 6 0 -1 -6
-15 -14z m-1489 -31 c115 -19 250 -63 339 -109 67 -36 162 -108 169 -128 2 -7
-5 -5 -15 5 -29 25 -280 143 -354 166 -189 60 -407 56 -605 -10 -74 -24 -200
-85 -279 -133 -32 -19 -61 -33 -63 -31 -9 9 114 97 187 135 131 68 324 118
461 120 36 1 108 -6 160 -15z m1419 1 c-14 -8 -29 -14 -35 -14 -5 0 1 6 15 14
14 8 30 14 35 14 6 0 -1 -6 -15 -14z m-401 -31 c24 -40 28 -58 7 -29 -13 18
-14 18 -48 -3 -40 -25 -48 -27 -48 -12 0 6 16 20 36 32 21 12 33 26 30 34 -10
25 2 14 23 -22z m521 31 c0 -5 -89 -45 -99 -45 -8 1 81 49 92 50 4 0 7 -2 7
-5z m-2790 -40 c11 -3 20 -13 20 -22 0 -12 -7 -10 -32 9 -18 14 -34 31 -37 39
-3 9 1 9 12 -3 10 -9 26 -20 37 -23z m2569 -39 c17 -41 31 -80 31 -87 0 -20
32 -99 40 -99 3 0 5 -13 2 -30 -5 -34 -21 -40 -29 -10 -7 27 -23 25 -23 -2 -1
-22 -1 -22 -12 -3 -7 11 -13 33 -15 48 -2 15 -18 67 -36 115 -53 137 -51 130
-28 102 11 -14 35 -71 53 -127 18 -56 37 -103 42 -103 19 0 -20 134 -64 220
-24 47 -24 50 -6 50 8 0 27 -32 45 -74z m231 44 c-20 -13 -33 -13 -25 0 3 6
14 10 23 10 15 0 15 -2 2 -10z m-145 -22 c6 -4 2 -8 -7 -8 -10 0 -18 7 -18 17
0 9 3 12 8 7 4 -5 12 -12 17 -16z m171 3 c-6 -9 -46 -22 -46 -15 0 3 10 9 23
14 29 11 29 11 23 1z m-67 -42 c-8 -5 -17 -9 -20 -9 -12 0 -32 31 -24 38 4 4
10 1 12 -5 7 -20 33 -16 27 5 -5 14 -4 14 6 -2 10 -15 9 -20 -1 -27z m121 33
c0 -10 -81 -44 -88 -38 -3 3 61 37 86 45 1 1 2 -3 2 -7z m-220 -24 c0 -4 -9
-8 -20 -8 -11 0 -20 4 -20 8 0 4 9 8 20 8 11 0 20 -4 20 -8z m-3614 -34 c-3
-9 -6 -20 -6 -25 0 -5 -13 -9 -30 -9 -52 0 -68 -64 -25 -98 14 -11 25 -25 25
-31 0 -18 -25 -13 -45 9 -10 11 -26 20 -37 20 -14 0 -18 8 -18 40 0 28 4 40
15 40 8 0 19 9 25 20 6 10 26 22 45 26 19 3 35 10 35 15 0 5 5 9 11 9 6 0 8
-7 5 -16z m963 -10 c14 -12 -19 -1 -35 12 -18 14 -18 14 6 3 14 -6 27 -13 29
-15z m3171 11 c0 -10 10 -15 30 -15 19 0 33 -6 37 -16 3 -8 16 -20 29 -25 30
-11 34 -66 7 -76 -10 -3 -28 -15 -40 -26 -12 -11 -29 -17 -37 -14 -20 8 -21
27 -1 27 8 0 20 8 26 19 7 11 19 16 31 13 10 -2 18 -1 18 2 0 17 -67 74 -90
77 -17 3 -26 11 -28 27 -2 12 1 22 7 22 6 0 11 -7 11 -15z m-300 -9 c-33 -18
-77 -31 -67 -20 9 10 66 32 82 33 6 0 -1 -6 -15 -13z m-97 -33 c-3 -7 -16 -13
-29 -13 -19 0 -24 5 -23 23 1 16 2 18 6 5 7 -26 33 -22 33 5 0 17 2 19 9 8 5
-8 7 -20 4 -28z m-2807 1 c18 -14 18 -14 -6 -3 -31 14 -36 19 -24 19 6 0 19
-7 30 -16z m3194 -110 c23 -111 28 -123 60 -151 28 -26 35 -38 35 -71 0 -22
-6 -46 -13 -55 -9 -11 -14 -60 -17 -154 -2 -76 -8 -178 -15 -228 -14 -116 -49
-287 -61 -299 -20 -22 -21 9 -1 106 30 146 42 243 49 401 l6 137 -31 0 c-21 0
-32 6 -37 19 -3 11 -12 24 -19 30 -11 10 -14 -15 -15 -141 -3 -244 -54 -549
-87 -516 -3 3 4 48 15 100 55 255 54 596 -2 835 -10 41 -12 65 -5 69 17 11 25
-9 47 -121 12 -60 24 -111 27 -114 9 -9 3 42 -16 140 -19 98 -19 130 0 100 4
-8 16 -55 25 -105 18 -94 34 -140 35 -100 0 12 -9 66 -20 119 -25 119 -25 127
-2 123 13 -2 22 -29 42 -124z m-4080 104 c0 -7 -9 -58 -19 -113 -17 -87 -20
-119 -8 -104 2 2 13 51 25 108 12 57 24 106 27 109 16 16 15 -19 -4 -120 -12
-62 -21 -120 -21 -128 1 -34 18 17 34 105 23 119 25 125 43 125 11 0 14 -7 10
-27 -47 -240 -49 -261 -50 -448 -1 -195 9 -295 44 -444 13 -56 16 -88 10 -94
-32 -32 -91 311 -91 523 0 96 -3 101 -57 93 -21 -3 -35 -12 -39 -25 -18 -58
29 -455 72 -605 5 -17 2 -23 -9 -23 -11 0 -20 21 -31 73 -37 166 -48 251 -53
412 -3 122 -9 180 -20 204 -20 44 -4 102 36 130 24 17 30 33 51 133 12 62 25
116 27 121 7 12 23 8 23 -5z m3620 -34 c0 -7 -8 -10 -21 -7 -13 4 -16 8 -10
13 7 3 9 15 6 26 -6 19 -6 19 9 0 9 -11 16 -25 16 -32z m-2745 18 c-3 -3 -11
0 -18 7 -9 10 -8 11 6 5 10 -3 15 -9 12 -12z m2955 13 c0 -6 -32 -19 -70 -29
-14 -3 -7 3 15 13 42 21 55 24 55 16z m-3892 -37 c-2 -13 -10 -23 -18 -23 -8
0 -16 10 -18 23 -3 17 2 22 18 22 16 0 21 -5 18 -22z m3165 -55 c21 -68 32
-111 53 -210 2 -13 12 -23 22 -23 16 -1 16 -1 0 -11 -19 -11 -22 -39 -12 -101
l7 -38 84 0 c63 0 84 -3 80 -12 -2 -9 -29 -13 -88 -13 l-84 0 -3 -42 -3 -43
43 0 c24 0 60 -3 80 -6 34 -6 37 -5 41 22 4 26 4 25 6 -7 0 -20 -1 -38 -4 -40
-2 -3 -39 -2 -82 2 -55 6 -80 4 -85 -4 -6 -9 -22 -93 -23 -121 0 -4 33 -17 74
-27 81 -21 86 -23 77 -37 -3 -5 -27 -3 -58 6 -109 30 -102 32 -127 -44 -21
-65 -21 -69 -5 -81 10 -7 24 -13 32 -13 19 0 92 -41 92 -52 0 -14 -18 -9 -87
22 -36 17 -67 29 -68 28 -8 -10 -55 -109 -55 -117 0 -5 24 -23 53 -40 75 -44
80 -48 73 -60 -5 -7 -29 3 -70 29 -35 22 -67 40 -72 40 -10 0 -81 -90 -90
-114 -4 -10 58 -70 115 -113 3 -2 0 -8 -5 -13 -6 -6 -31 8 -69 40 -33 27 -64
50 -69 50 -5 0 -24 -17 -43 -37 -19 -23 2 17 51 95 47 73 87 146 91 162 4 17
13 30 20 30 14 0 50 85 83 195 65 222 65 440 -2 657 -22 71 -25 118 -6 118 4
0 19 -35 33 -77z m72 67 c-27 -12 -43 -12 -25 0 8 5 22 9 30 9 10 0 8 -3 -5
-9z m952 -6 c8 -22 -15 -43 -27 -24 -5 8 -10 21 -10 28 0 17 30 15 37 -4z
m-3165 -57 c-51 -175 -54 -197 -59 -332 -4 -104 -1 -164 11 -235 20 -112 80
-300 102 -317 9 -6 28 -39 44 -72 16 -33 60 -107 99 -164 78 -115 91 -142 35
-75 -20 23 -40 44 -45 46 -5 2 -32 -17 -61 -42 -50 -44 -78 -57 -78 -37 0 9
33 39 98 88 l23 18 -40 54 c-22 29 -42 59 -44 65 -3 8 -11 7 -31 -2 -15 -6
-25 -16 -21 -21 3 -5 0 -13 -6 -17 -8 -4 -9 -3 -5 4 10 17 1 15 -36 -8 -18
-11 -39 -20 -45 -20 -29 0 -9 21 52 55 36 20 65 41 65 47 0 12 -59 118 -66
118 -2 0 -35 -15 -73 -33 l-69 -33 -11 23 c-14 30 -14 44 -1 21 9 -15 14 -14
57 7 27 12 58 26 71 30 13 3 21 12 18 18 -3 7 -13 38 -22 70 -19 63 -24 65
-89 43 -75 -25 -95 -28 -95 -11 0 8 2 15 4 15 5 0 127 30 143 35 8 3 9 14 3
37 -4 18 -11 50 -15 71 l-6 38 -62 -6 c-34 -3 -72 -8 -84 -11 -22 -4 -23 -1
-21 48 1 43 2 46 5 16 l4 -37 67 5 c90 8 88 6 84 51 l-4 40 -79 -3 c-63 -2
-79 1 -79 12 0 11 18 14 80 14 l80 0 1 58 c1 62 1 68 19 157 10 54 56 207 67
228 3 5 10 4 16 -2 8 -8 8 -23 -1 -54z m2886 -85 c7 -2 12 -8 12 -13 0 -6 -4
-7 -10 -4 -5 3 -10 -3 -10 -15 0 -31 -24 -19 -31 16 -12 52 -10 112 4 117 8 2
14 -12 17 -46 3 -28 11 -52 18 -55z m-3635 91 c3 -5 -6 -8 -19 -8 -13 0 -24 3
-24 8 0 4 9 7 19 7 11 0 22 -3 24 -7z m2992 -3 c-27 -12 -43 -12 -25 0 8 5 22
9 30 9 10 0 8 -3 -5 -9z m-2599 -87 c-17 -73 -20 -123 -20 -288 -1 -184 2
-208 26 -307 15 -58 43 -145 62 -192 19 -47 33 -86 30 -86 -9 0 -54 102 -78
179 -44 139 -59 250 -59 426 0 150 10 246 34 323 21 67 25 29 5 -55z m2838
-13 c35 -208 29 -421 -19 -606 -25 -95 -83 -249 -91 -241 -3 2 9 38 26 80 16
41 42 124 57 184 25 99 27 124 27 298 0 138 -5 212 -17 270 -19 92 -22 124 -7
109 5 -5 16 -47 24 -94z m-2594 80 c13 -9 13 -10 0 -10 -13 0 -13 -1 0 -10 18
-12 2 -12 -25 0 l-20 9 20 0 c17 1 17 3 5 11 -8 5 -10 10 -5 10 6 0 17 -5 25
-10z m1212 -12 c19 -30 4 -43 -51 -43 -44 0 -55 3 -57 17 -1 10 2 20 7 24 5 3
7 9 5 12 -8 13 88 2 96 -10z m1165 16 c-3 -3 -12 -4 -19 -1 -8 3 -5 6 6 6 11
1 17 -2 13 -5z m553 -9 c0 -8 -6 -15 -14 -15 -17 0 -28 14 -19 24 12 12 33 6
33 -9z m-3606 -10 c3 -8 1 -15 -4 -15 -6 0 -10 7 -10 15 0 8 2 15 4 15 2 0 6
-7 10 -15z m3113 -7 c-3 -8 -6 -5 -6 6 -1 11 2 17 5 13 3 -3 4 -12 1 -19z
m-1359 -10 c3 -15 -1 -15 -27 -5 -34 12 -33 25 1 23 13 0 24 -8 26 -18z m213
1 c-55 -19 -79 -17 -50 4 9 7 36 13 60 13 l44 2 -54 -19z m1096 15 c-3 -3 -12
-4 -19 -1 -8 3 -5 6 6 6 11 1 17 -2 13 -5z m-1417 -27 c78 -22 117 -39 103
-44 -6 -2 -42 5 -79 17 -140 43 -392 50 -626 16 -49 -7 -88 -9 -88 -4 0 4 3 8
8 9 4 0 50 6 102 14 130 19 503 14 580 -8z m930 13 c109 -13 140 -20 140 -29
0 -5 -19 -5 -42 0 -24 4 -115 13 -203 20 -233 18 -397 1 -529 -56 -14 -6 -18
-5 -14 6 5 16 87 46 161 58 74 12 387 13 487 1z m209 -17 c-13 -16 -25 -30
-26 -32 -2 -2 -3 7 -3 22 0 23 10 32 44 36 5 0 -1 -11 -15 -26z m398 -5 c-3
-7 -5 -2 -5 12 0 14 2 19 5 13 2 -7 2 -19 0 -25z m-2530 16 c-3 -3 -12 -4 -19
-1 -8 3 -5 6 6 6 11 1 17 -2 13 -5z m263 -16 c0 -12 -1 -19 -3 -17 -1 2 -9 12
-16 22 -12 14 -11 17 3 17 10 0 16 -8 16 -22z m2145 12 c-11 -5 -27 -9 -35 -9
-9 0 -8 4 5 9 11 5 27 9 35 9 9 0 8 -4 -5 -9z m540 0 c3 -5 -1 -10 -9 -10 -9
0 -16 5 -16 10 0 6 4 10 9 10 6 0 13 -4 16 -10z m-478 -22 c-3 -8 -6 -5 -6 6
-1 11 2 17 5 13 3 -3 4 -12 1 -19z m-2457 2 c11 -8 7 -9 -15 -4 -37 8 -45 14
-19 14 10 0 26 -5 34 -10z m2405 0 c-3 -5 -16 -10 -28 -9 -20 1 -20 2 3 9 14
4 26 8 28 9 2 1 0 -3 -3 -9z m393 -20 c-3 -36 -14 -39 -20 -5 -4 20 0 28 20
34 1 1 1 -12 0 -29z m-1808 -10 c52 -27 64 -56 57 -142 -3 -41 -12 -89 -21
-108 -9 -19 -14 -27 -11 -17 19 71 27 152 16 187 -14 48 -37 68 -108 91 -57
18 -57 18 -13 13 25 -4 61 -14 80 -24z m438 11 c-77 -20 -102 -39 -119 -88
-11 -35 0 -132 22 -190 5 -14 7 -28 5 -30 -3 -3 -15 27 -27 67 -15 51 -20 88
-17 131 5 74 25 96 99 114 81 20 114 16 37 -4z m1247 2 c3 -10 9 -80 12 -155
6 -126 12 -155 28 -129 5 9 -10 254 -17 279 -2 6 1 12 6 14 16 5 26 -51 32
-184 l7 -128 -30 0 -30 0 -7 118 c-4 64 -11 136 -16 160 -7 42 2 58 15 25z
m218 -14 c16 -11 -1 -39 -23 -39 -12 0 -20 7 -20 18 0 14 -2 15 -10 2 -8 -13
-10 -13 -10 1 0 21 43 52 49 35 2 -6 8 -14 14 -17z m-3544 12 c7 -5 12 -13 10
-18 -2 -5 -12 -1 -21 9 -19 19 -13 24 11 9z m1060 -13 c-7 -13 -14 -18 -16
-12 -2 6 -17 8 -33 6 -17 -2 -30 0 -30 6 0 6 19 13 43 15 23 2 43 4 45 5 1 1
-3 -8 -9 -20z m2541 -18 c0 -30 -4 -40 -16 -40 -8 0 -12 5 -9 10 3 6 1 10 -4
10 -15 0 -14 33 1 48 21 21 28 13 28 -28z m-2947 23 c-7 -2 -19 -2 -25 0 -7 3
-2 5 12 5 14 0 19 -2 13 -5z m1233 -24 c-3 -17 -6 -37 -6 -43 0 -7 -23 -11
-60 -12 l-60 0 0 43 0 43 66 0 67 0 -7 -31z m774 21 c0 -12 -79 -10 -86 2 -3
4 15 8 40 8 25 0 46 -4 46 -10z m393 3 c-7 -2 -19 -2 -25 0 -7 3 -2 5 12 5 14
0 19 -2 13 -5z m64 -15 c-3 -8 -6 -5 -6 6 -1 11 2 17 5 13 3 -3 4 -12 1 -19z
m-2580 -20 c-3 -8 -6 -5 -6 6 -1 11 2 17 5 13 3 -3 4 -12 1 -19z m106 15 c-7
-2 -19 -2 -25 0 -7 3 -2 5 12 5 14 0 19 -2 13 -5z m938 -24 c20 -22 29 -26 29
-15 0 24 15 19 28 -9 34 -73 -2 -233 -69 -308 -50 -57 -90 -70 -219 -70 -141
1 -203 32 -236 120 -24 63 -7 79 94 88 43 4 89 14 104 21 26 14 29 13 60 -21
28 -31 41 -37 90 -42 47 -5 62 -2 91 16 19 11 37 18 40 14 12 -11 7 30 -9 87
-8 30 -19 69 -24 85 -4 17 -11 38 -15 48 -11 26 4 21 36 -14z m666 17 c12 -3
37 -11 55 -20 34 -15 114 -39 136 -39 6 0 12 -4 12 -9 0 -5 5 -6 10 -3 20 13
9 -23 -20 -63 -49 -67 -88 -57 -163 42 -40 52 -86 73 -132 59 -32 -10 -34 -10
-25 8 21 38 40 42 127 25z m822 10 c-2 -2 -17 -6 -34 -10 -22 -5 -26 -4 -15 4
14 9 59 15 49 6z m-1563 -27 l19 -22 -37 7 c-51 9 -90 -12 -134 -75 -60 -83
-95 -90 -149 -27 -50 59 -45 81 20 83 28 0 61 7 74 14 35 19 101 37 147 39 31
2 45 -2 60 -19z m580 4 c-9 -33 -46 -191 -46 -199 0 -13 81 -44 115 -44 53 0
99 19 126 52 25 30 27 31 50 15 13 -10 42 -17 64 -17 55 -1 115 -16 133 -34
14 -13 13 -20 -2 -59 -34 -89 -95 -120 -241 -120 -107 1 -159 15 -203 56 -76
71 -120 271 -72 328 18 23 19 23 20 4 1 -17 3 -16 16 8 16 30 49 38 40 10z
m-2089 -30 c-3 -10 -5 -4 -5 12 0 17 2 24 5 18 2 -7 2 -21 0 -30z m640 31 c-3
-3 -12 -4 -19 -1 -8 3 -5 6 6 6 11 1 17 -2 13 -5z m181 -6 c-6 -18 -28 -21
-28 -4 0 9 7 16 16 16 9 0 14 -5 12 -12z m2040 1 c-2 -6 -8 -10 -13 -10 -5 0
-11 4 -13 10 -2 6 4 11 13 11 9 0 15 -5 13 -11z m207 1 c-11 -5 -29 -8 -40 -8
-16 0 -15 2 5 8 34 11 60 11 35 0z m-2010 -181 c4 -24 5 -41 1 -38 -3 3 -11
41 -17 84 -9 59 -18 85 -35 102 l-23 23 24 -6 c17 -4 25 -2 26 7 1 8 5 -18 9
-57 4 -39 11 -90 15 -115z m2072 149 c-3 -7 -5 -2 -5 12 0 14 2 19 5 13 2 -7
2 -19 0 -25z m-2600 -25 c-3 -10 -5 -2 -5 17 0 19 2 27 5 18 2 -10 2 -26 0
-35z m106 40 c-7 -2 -19 -2 -25 0 -7 3 -2 5 12 5 14 0 19 -2 13 -5z m242 -3
c19 -8 19 -9 -2 -9 -12 -1 -25 4 -28 9 -7 12 2 12 30 0z m1925 0 c-8 -5 -24
-9 -35 -9 l-20 0 20 9 c11 5 27 9 35 9 13 1 13 0 0 -9z m733 3 c-7 -2 -19 -2
-25 0 -7 3 -2 5 12 5 14 0 19 -2 13 -5z m-907 -25 c-8 -13 -20 -59 -26 -102
-7 -44 -16 -89 -21 -100 -9 -19 -9 -18 -4 4 3 14 11 69 17 123 11 82 15 97 30
97 17 0 17 -2 4 -22z m427 15 c-7 -2 -19 -2 -25 0 -7 3 -2 5 12 5 14 0 19 -2
13 -5z m-2723 -108 l0 -105 -145 0 -145 0 0 105 0 105 145 0 145 0 0 -105z
m297 99 c-3 -3 -12 -4 -19 -1 -8 3 -5 6 6 6 11 1 17 -2 13 -5z m2446 -11 c-7
-2 -19 -2 -25 0 -7 3 -2 5 12 5 14 0 19 -2 13 -5z m-2450 -10 c-7 -2 -19 -2
-25 0 -7 3 -2 5 12 5 14 0 19 -2 13 -5z m3064 -55 c-2 -13 -4 -3 -4 22 0 25 2
35 4 23 2 -13 2 -33 0 -45z m-612 42 c-11 -5 -29 -8 -40 -8 -16 0 -15 2 5 8
34 11 60 11 35 0z m62 -42 c-2 -13 -4 -5 -4 17 -1 22 1 32 4 23 2 -10 2 -28 0
-40z m-2524 35 c-7 -2 -19 -2 -25 0 -7 3 -2 5 12 5 14 0 19 -2 13 -5z m897
-13 c0 -5 -5 -12 -11 -16 -14 -8 -33 11 -25 25 7 11 36 4 36 -9z m2147 -17
c-3 -10 -5 -4 -5 12 0 17 2 24 5 18 2 -7 2 -21 0 -30z m-3140 -50 c-2 -16 -4
-3 -4 27 0 30 2 43 4 28 2 -16 2 -40 0 -55z m1354 57 c4 -8 30 -62 57 -120 87
-185 154 -240 307 -248 146 -7 244 19 306 82 50 50 66 88 94 221 6 29 8 28 39
-40 34 -73 37 -86 11 -65 -35 29 -10 -6 50 -70 69 -74 88 -112 30 -61 -42 36
-58 41 -28 9 25 -28 39 -55 59 -111 l15 -42 -51 50 -51 50 35 -70 c20 -39 38
-83 42 -100 4 -25 0 -22 -26 21 -45 77 -63 87 -38 22 22 -56 28 -172 10 -203
-7 -14 -10 -9 -14 21 -6 41 -35 120 -42 113 -3 -2 0 -27 5 -54 11 -55 6 -99
-19 -190 l-17 -60 -5 55 -5 55 -13 -54 c-7 -30 -22 -75 -34 -100 l-21 -46 -7
47 c-3 26 -8 49 -11 52 -3 3 -11 -21 -17 -54 -7 -33 -16 -61 -20 -64 -4 -2 -8
27 -8 64 -2 88 -23 132 -24 48 0 -69 -35 -170 -85 -245 -35 -52 -56 -72 -35
-32 25 46 2 37 -33 -13 -20 -30 -48 -65 -61 -77 -24 -22 -23 -20 9 55 18 44
36 97 40 119 5 37 4 36 -20 -20 -14 -34 -44 -83 -66 -110 -43 -52 -119 -114
-119 -96 0 5 5 13 10 16 6 3 10 11 10 16 0 6 -17 -3 -37 -20 -20 -17 -38 -29
-40 -27 -2 1 4 19 12 39 22 54 20 53 -36 -5 -28 -29 -45 -42 -38 -29 11 23 11
23 -25 -4 -20 -15 -36 -31 -36 -36 0 -5 -5 -9 -11 -9 -5 0 -7 6 -4 13 4 6 -3
1 -14 -13 -11 -14 -33 -49 -48 -77 -16 -29 -30 -53 -33 -53 -3 0 -13 17 -22
38 -22 48 -68 110 -68 92 0 -8 -18 3 -41 25 -33 32 -39 35 -29 15 l13 -25 -23
20 c-13 11 -36 38 -51 59 -32 42 -38 30 -14 -28 8 -20 13 -36 10 -36 -3 0 -23
16 -45 36 -41 37 -48 38 -29 2 9 -16 2 -14 -35 12 -52 35 -105 108 -142 196
-22 52 -25 55 -20 22 2 -20 16 -65 31 -100 14 -34 29 -70 32 -78 11 -27 -48
33 -84 85 -30 44 -33 47 -28 20 l6 -30 -26 30 c-58 66 -98 179 -93 260 1 30 0
55 -4 55 -10 0 -22 -66 -22 -127 0 -60 -10 -51 -27 25 -13 57 -29 53 -29 -6 0
-21 -4 -31 -11 -27 -13 9 -27 45 -49 125 l-17 65 -7 -38 c-4 -20 -4 -43 0 -50
5 -8 4 -9 -4 -2 -23 21 -44 137 -39 205 l6 65 -19 -40 c-11 -22 -20 -50 -20
-62 0 -13 -4 -23 -10 -23 -15 0 -12 152 5 199 8 22 12 41 9 41 -2 0 -18 -21
-34 -47 -37 -57 -39 -34 -5 49 l25 62 -36 -34 c-34 -33 -36 -34 -29 -10 4 14
20 49 36 78 33 58 29 65 -14 25 -50 -47 -16 7 48 75 52 57 73 90 39 61 -10 -9
-7 6 11 46 14 33 28 61 30 63 6 6 12 -13 19 -58 9 -53 53 -140 87 -173 61 -58
109 -71 259 -72 120 0 139 2 176 22 82 44 125 100 194 253 23 52 47 98 54 103
18 12 78 3 87 -13z m304 5 c0 -5 -10 -11 -22 -13 -16 -2 -23 2 -23 13 0 11 7
15 23 13 12 -2 22 -7 22 -13z m-1578 -1 c-3 -3 -12 -4 -19 -1 -8 3 -5 6 6 6
11 1 17 -2 13 -5z m2481 -1 c-10 -2 -26 -2 -35 0 -10 3 -2 5 17 5 19 0 27 -2
18 -5z m542 -3 c0 -6 -38 -10 -95 -10 -57 0 -95 4 -95 10 0 6 38 10 95 10 57
0 95 -4 95 -10z m-537 -17 c-7 -2 -19 -2 -25 0 -7 3 -2 5 12 5 14 0 19 -2 13
-5z m-3440 -105 c-7 -138 12 -357 43 -496 24 -107 24 -115 8 -126 -18 -14 -12
-36 11 -36 8 0 19 -18 25 -42 6 -24 13 -49 15 -55 2 -7 0 -13 -5 -13 -5 0 -15
20 -21 45 -6 25 -17 45 -25 45 -7 0 -18 9 -24 19 -13 25 -13 27 4 44 13 12 12
30 -9 132 -38 187 -56 442 -39 548 13 73 22 36 17 -65z m984 96 c-3 -3 -12 -4
-19 -1 -8 3 -5 6 6 6 11 1 17 -2 13 -5z m3393 -151 c0 -177 -11 -289 -42 -442
-16 -77 -18 -106 -10 -109 21 -7 13 -51 -12 -67 -14 -9 -27 -30 -30 -50 -4
-19 -12 -37 -17 -41 -7 -4 -9 0 -6 12 3 11 11 38 17 61 6 24 16 42 22 40 7 -1
14 6 16 16 2 11 -3 17 -13 17 -12 0 -15 5 -10 18 37 95 65 323 65 530 0 108 4
172 10 172 6 0 10 -59 10 -157z m-3213 131 c3 -8 -2 -23 -11 -32 -15 -15 -17
-15 -32 0 -21 21 -11 48 16 48 11 0 23 -7 27 -16z m597 -9 c4 -16 20 -32 41
-42 32 -15 37 -15 77 0 l43 16 -24 -19 c-52 -44 -160 -9 -161 53 0 26 17 20
24 -8z m856 9 c0 -8 -13 -29 -29 -45 -36 -36 -96 -40 -132 -9 -13 10 -19 19
-12 20 6 0 14 -4 17 -9 9 -14 57 -19 88 -9 16 6 35 23 44 39 16 32 24 37 24
13z m635 -9 c0 -13 -8 -21 -24 -23 -28 -4 -45 17 -29 36 17 20 53 11 53 -13z
m-1992 8 c-13 -2 -33 -2 -45 0 -13 2 -3 4 22 4 25 0 35 -2 23 -4z m1907 3 c0
-2 -18 -6 -40 -8 -22 -2 -40 0 -40 4 0 5 18 8 40 8 22 0 40 -2 40 -4z m-2798
-31 c9 -21 8 -28 -7 -45 -31 -34 -75 -20 -75 25 0 48 62 63 82 20z m3061 8
c-7 -2 -21 -2 -30 0 -10 3 -4 5 12 5 17 0 24 -2 18 -5z m533 -3 c13 0 24 -5
24 -11 0 -6 -12 -9 -28 -8 -15 2 -32 0 -37 -3 -14 -9 -135 3 -135 13 0 9 82
18 124 13 16 -2 39 -4 52 -4z m-2696 -16 c0 -2 -16 -4 -35 -4 -19 0 -35 4 -35
8 0 4 16 6 35 4 19 -2 35 -6 35 -8z m1905 6 c-3 -5 -25 -9 -48 -9 -40 1 -40 2
-12 9 44 11 67 11 60 0z m868 3 c-7 -2 -19 -2 -25 0 -7 3 -2 5 12 5 14 0 19
-2 13 -5z m-605 -10 c-10 -2 -26 -2 -35 0 -10 3 -2 5 17 5 19 0 27 -2 18 -5z
m5 -20 c-7 -2 -19 -2 -25 0 -7 3 -2 5 12 5 14 0 19 -2 13 -5z m-3330 -135 c7
-154 21 -260 48 -373 21 -89 24 -114 10 -99 -12 12 -47 169 -61 269 -16 122
-25 335 -13 335 6 0 12 -55 16 -132z m37 69 c0 -102 19 -272 46 -406 22 -111
24 -145 9 -129 -11 11 -54 227 -64 320 -14 124 -14 278 -1 278 6 0 10 -28 10
-63z m4077 -104 c-5 -172 -42 -403 -68 -427 -13 -13 -11 11 21 179 12 61 23
178 27 263 3 90 10 152 16 152 6 0 8 -59 4 -167z m40 20 c-8 -195 -55 -472
-77 -458 -5 3 -4 20 1 38 27 93 51 267 56 410 4 95 10 157 16 157 7 0 8 -51 4
-147z m-824 130 c-7 -2 -21 -2 -30 0 -10 3 -4 5 12 5 17 0 24 -2 18 -5z
m-2753 -66 l0 -40 -67 6 c-38 4 -97 7 -133 7 l-66 0 4 33 4 32 129 1 129 1 0
-40z m278 6 c-10 -2 -26 -2 -35 0 -10 3 -2 5 17 5 19 0 27 -2 18 -5z m-590
-10 c-16 -2 -40 -2 -55 0 -16 2 -3 4 27 4 30 0 43 -2 28 -4z m812 -3 c-20 -13
-83 -13 -75 0 3 6 25 10 48 10 31 0 38 -3 27 -10z m2070 0 c0 -5 -20 -10 -44
-10 -25 0 -48 5 -51 10 -4 6 13 10 44 10 28 0 51 -4 51 -10z m560 -15 c0 -21
-5 -25 -29 -25 -33 0 -44 11 -35 34 4 10 18 16 35 16 24 0 29 -4 29 -25z m250
-5 c0 -30 -1 -30 -55 -30 -54 0 -55 0 -55 30 0 30 1 30 55 30 54 0 55 0 55
-30z m-157 13 c-7 -2 -21 -2 -30 0 -10 3 -4 5 12 5 17 0 24 -2 18 -5z m-3540
-30 c-13 -2 -35 -2 -50 0 -16 2 -5 4 22 4 28 0 40 -2 28 -4z m5 -50 c-16 -2
-40 -2 -55 0 -16 2 -3 4 27 4 30 0 43 -2 28 -4z m124 -33 c3 -16 1 -30 -4 -30
-4 0 -8 14 -8 30 0 17 2 30 4 30 2 0 6 -13 8 -30z m51 23 c-7 -2 -13 -9 -13
-15 0 -6 7 -7 16 -4 8 3 12 2 9 -4 -3 -6 -13 -10 -21 -10 -8 0 -12 -4 -9 -10
3 -5 1 -10 -4 -10 -12 0 -15 43 -4 53 3 4 13 7 22 6 10 0 12 -2 4 -6z m-73
-13 c0 -5 -5 -10 -11 -10 -5 0 -7 5 -4 10 3 6 8 10 11 10 2 0 4 -4 4 -10z
m188 -7 c-16 -2 -40 -2 -55 0 -16 2 -3 4 27 4 30 0 43 -2 28 -4z m219 -25 c-3
-8 -6 -5 -6 6 -1 11 2 17 5 13 3 -3 4 -12 1 -19z m746 15 c-7 -2 -21 -2 -30 0
-10 3 -4 5 12 5 17 0 24 -2 18 -5z m200 0 c-7 -2 -21 -2 -30 0 -10 3 -4 5 12
5 17 0 24 -2 18 -5z m901 -5 c-21 -4 -61 -7 -89 -7 -27 0 -68 3 -89 7 -24 4
11 7 89 7 78 0 113 -3 89 -7z m1206 -14 c0 -23 -3 -25 -42 -22 -36 2 -44 7
-46 26 -3 20 1 22 42 22 43 0 46 -2 46 -26z m-3556 -6 c8 -14 7 -21 -6 -34
-30 -30 -75 9 -48 42 16 18 39 15 54 -8z m1363 15 c-20 -2 -52 -2 -70 0 -17 2
0 4 38 4 39 0 53 -2 32 -4z m2298 -23 c0 -18 -6 -26 -21 -28 -26 -4 -40 24
-23 45 18 21 44 11 44 -17z m-3052 13 c-7 -2 -21 -2 -30 0 -10 3 -4 5 12 5 17
0 24 -2 18 -5z m2943 -68 c46 -27 95 -108 93 -154 -1 -18 -5 -12 -14 21 -24
90 -94 148 -178 148 -62 0 -105 -19 -144 -63 -29 -33 -39 -57 -56 -132 -4 -16
-5 -15 -6 5 -3 77 59 168 134 196 52 19 117 11 171 -21z m-3294 -8 c41 -22 84
-79 94 -124 4 -22 1 -18 -16 14 -43 84 -130 133 -209 118 -53 -10 -109 -45
-133 -83 -11 -18 -23 -31 -26 -28 -3 3 7 24 21 46 56 84 174 109 269 57z m335
27 c-3 -3 -12 -4 -19 -1 -8 3 -5 6 6 6 11 1 17 -2 13 -5z m2944 -37 c52 -35
79 -82 79 -139 0 -59 -19 -99 -62 -129 -17 -13 -28 -16 -23 -8 8 12 6 12 -8 0
-14 -11 -20 -11 -33 -1 -12 11 -15 11 -12 -1 2 -8 -5 -14 -14 -14 -9 0 -20 -4
-24 -8 -4 -4 -13 -2 -20 4 -8 6 -20 9 -28 6 -23 -9 -74 30 -97 74 -41 81 -8
182 73 222 49 25 128 22 169 -6z m-3301 -46 c34 -24 70 -89 70 -127 0 -39 -35
-92 -77 -117 -41 -23 -134 -25 -169 -3 -36 24 -64 88 -63 143 0 32 3 42 8 29
6 -17 9 -15 20 12 34 82 139 113 211 63z m390 -51 c-8 -5 -19 -10 -25 -10 -5
0 -3 5 5 10 8 5 20 10 25 10 6 0 3 -5 -5 -10z m55 -50 c-3 -5 -12 -10 -18 -10
-7 0 -6 4 3 10 19 12 23 12 15 0z m-312 -148 c-38 -45 -153 -122 -182 -122
-11 0 -16 9 -16 30 0 25 6 31 44 46 82 31 141 101 141 166 0 32 1 31 25 -21
l26 -54 -38 -45z m2552 40 c-3 -3 -11 0 -18 7 -9 10 -8 11 6 5 10 -3 15 -9 12
-12z m377 -51 c23 -24 59 -46 89 -56 44 -15 62 -36 42 -48 -12 -7 -145 70
-170 99 -50 56 -17 60 39 5z m-3397 10 c0 -16 -120 -55 -143 -46 -14 5 -13 9
8 25 46 35 135 49 135 21z m3876 4 c24 -9 50 -17 57 -20 11 -4 11 -8 -1 -19
-12 -13 -21 -13 -68 1 -60 17 -74 26 -65 42 9 15 25 14 77 -4z m-3752 -36 c32
-26 15 -49 -24 -31 l-25 12 20 -41 c12 -22 31 -44 43 -49 l22 -9 -23 0 c-34
-1 -83 86 -68 124 7 20 26 18 55 -6z m3611 6 c0 -4 -69 -135 -76 -144 -2 -2
-17 2 -35 9 -25 11 -28 15 -15 22 9 5 16 16 16 25 0 13 -2 14 -17 2 -15 -12
-16 -12 -10 4 4 11 2 17 -8 17 -7 0 -16 -8 -18 -17 -2 -10 -3 -5 -1 11 6 40 8
41 47 17 19 -11 38 -21 43 -21 5 0 20 18 34 40 21 34 40 51 40 35z m-3720 -15
c0 -5 -6 -10 -12 -10 -9 0 -8 -3 2 -10 11 -7 9 -11 -14 -20 -16 -6 -46 -14
-66 -19 -31 -7 -37 -6 -33 5 3 8 0 14 -7 14 -25 0 4 20 48 34 57 18 82 19 82
6z m540 -32 c21 -46 26 -98 10 -98 -6 0 -25 24 -44 53 -31 48 -33 53 -18 70
23 25 31 21 52 -25z m2646 28 c18 -14 18 -16 2 -43 -20 -34 -29 -37 -52 -20
-17 13 -17 15 -2 45 19 36 24 38 52 18z m88 1 c17 -13 16 -16 -14 -65 -17 -29
-34 -52 -38 -52 -3 0 -2 3 1 6 3 4 0 16 -8 27 -12 17 -12 25 6 58 21 43 27 45
53 26z m574 -2 c54 -16 58 -20 43 -44 -18 -28 -121 13 -121 48 0 15 16 14 78
-4z m-3624 -24 c11 -12 14 -21 7 -26 -6 -3 -11 -1 -11 4 0 17 -48 13 -52 -4
-2 -9 -8 -11 -15 -7 -10 6 -9 13 3 30 19 27 45 28 68 3z m-199 -30 c3 -5 1
-12 -5 -16 -20 -12 -140 -42 -140 -35 0 15 32 34 78 46 59 16 60 16 67 5z
m3792 -6 c27 -8 58 -24 69 -36 19 -21 19 -22 -1 -16 -11 3 -48 13 -82 23 -61
16 -71 23 -56 37 9 9 12 9 70 -8z m-3347 -2 c0 -5 -52 -37 -115 -72 -93 -52
-115 -69 -115 -87 0 -23 17 -34 56 -34 48 0 22 -22 -94 -78 -128 -62 -222
-119 -222 -133 0 -6 7 -21 16 -34 9 -14 14 -25 11 -25 -6 0 -47 64 -47 73 0 2
27 22 60 43 64 42 84 75 58 100 -13 13 -23 11 -81 -17 -41 -19 -67 -38 -67
-47 0 -13 -2 -14 -12 -3 -19 18 8 36 232 152 107 56 222 117 255 135 67 38 65
37 65 27z m440 2 c0 -2 -10 -9 -22 -15 -22 -11 -22 -10 -4 4 21 17 26 19 26
11z m2540 -75 c83 -44 192 -100 243 -126 113 -56 157 -83 157 -95 0 -5 -32 7
-71 27 -39 19 -77 33 -85 30 -8 -3 -14 -19 -14 -35 0 -25 9 -35 66 -70 36 -23
64 -45 62 -49 -11 -25 -140 -252 -144 -252 -6 0 23 55 80 155 25 44 46 83 46
87 0 12 -77 58 -212 125 -71 34 -128 68 -128 74 0 6 8 9 19 6 27 -7 51 11 51
38 0 19 -15 31 -76 65 -69 38 -77 40 -93 26 -15 -13 -20 -13 -49 6 -17 11 -32
24 -32 28 0 16 12 40 21 40 4 0 76 -36 159 -80z m-2530 55 c0 -2 -10 -9 -22
-15 -22 -11 -22 -10 -4 4 21 17 26 19 26 11z m-428 -15 c0 -5 1 -15 2 -20 1
-6 -12 -19 -29 -30 -30 -20 -55 -13 -55 16 0 24 78 57 82 34z m-421 -71 c24
-49 28 -64 17 -70 -7 -5 -17 -9 -21 -9 -10 0 -57 104 -57 125 0 35 32 10 61
-46z m717 -103 c6 -3 34 -34 63 -68 l53 -63 -63 60 c-64 61 -181 208 -181 226
0 6 27 -25 59 -69 33 -44 64 -82 69 -86z m2279 92 c-53 -74 -187 -221 -195
-214 -3 3 26 39 65 79 38 40 91 103 117 140 27 38 51 66 53 63 3 -3 -15 -33
-40 -68z m693 61 c0 -12 -51 -129 -56 -129 -13 0 -34 14 -34 24 0 6 11 35 25
64 17 38 30 52 45 52 11 0 20 -5 20 -11z m-3980 -126 c0 -12 -6 -24 -12 -26
-7 -3 -4 -6 7 -6 19 -1 21 -7 20 -88 -1 -49 2 -100 6 -115 4 -16 4 -28 0 -28
-4 0 -8 -7 -8 -15 0 -8 5 -15 11 -15 6 0 4 -5 -4 -10 -13 -9 -13 -10 0 -10 13
0 13 -1 0 -10 -13 -9 -13 -10 0 -10 13 0 13 -1 0 -10 -8 -5 -10 -10 -5 -10 6
0 10 -36 11 -85 1 -76 4 -87 29 -116 22 -27 26 -39 21 -68 -3 -19 -11 -40 -18
-47 -11 -11 -12 -5 -10 30 7 77 -53 112 -105 60 -22 -22 -24 -31 -19 -65 8
-47 2 -49 -20 -8 -17 34 -12 73 12 100 13 14 15 60 14 268 0 141 3 251 8 251
5 0 13 27 16 61 11 91 18 101 33 44 7 -28 13 -60 13 -72z m230 51 c34 -74 34
-74 20 -74 -9 0 -46 75 -56 117 -11 44 7 23 36 -43z m570 51 c0 -8 -4 -15 -9
-15 -13 0 -22 16 -14 24 11 11 23 6 23 -9z m-641 -76 c24 -59 30 -84 22 -92
-8 -8 -19 7 -40 55 -39 86 -47 118 -30 118 8 0 29 -37 48 -81z m32 15 c17 -36
28 -71 26 -77 -5 -12 -67 113 -67 133 0 24 13 6 41 -56z m424 36 c0 -28 -64
-68 -77 -47 -14 22 -8 35 25 56 38 25 52 22 52 -9z m3495 23 c0 -18 -64 -173
-71 -173 -20 0 -17 24 12 99 18 45 38 81 46 81 7 0 13 -3 13 -7z m-99 -83 c-8
-27 -21 -50 -28 -50 -11 0 -10 8 2 37 13 32 33 63 40 63 1 0 -5 -22 -14 -50z
m-3493 7 c2 -12 -3 -17 -17 -17 -12 0 -21 6 -21 13 0 31 32 34 38 4z m3128 8
c10 -8 15 -14 9 -14 -5 0 -19 6 -29 14 -11 8 -15 15 -10 15 6 0 19 -7 30 -15z
m73 -21 c-12 -15 -39 -8 -39 11 0 18 22 25 38 12 9 -7 9 -13 1 -23z m524 29
c-7 -2 -19 -2 -25 0 -7 3 -2 5 12 5 14 0 19 -2 13 -5z m-1 -25 c-9 -9 -15 -9
-24 0 -9 9 -7 12 12 12 19 0 21 -3 12 -12z m-742 -8 c47 -13 96 -65 110 -118
14 -56 -2 -110 -47 -154 -32 -31 -39 -33 -103 -33 -68 0 -70 1 -111 42 -37 37
-43 48 -47 97 -8 95 45 153 158 175 3 0 21 -4 40 -9z m-2671 -29 c70 -50 87
-148 38 -218 -33 -48 -71 -66 -133 -65 -86 1 -146 66 -146 158 0 121 143 195
241 125z m3419 12 c-10 -2 -26 -2 -35 0 -10 3 -2 5 17 5 19 0 27 -2 18 -5z
m-2952 -49 c-10 -14 -20 -23 -23 -21 -2 3 3 17 13 31 9 15 19 24 22 22 2 -3
-3 -17 -12 -32z m1634 -6 c0 -14 -19 1 -31 25 -12 22 -12 22 10 3 11 -11 21
-23 21 -28z m1316 22 c0 -12 -7 -20 -16 -20 -9 0 -16 8 -16 20 0 12 7 20 16
20 9 0 16 -8 16 -20z m-1401 -24 c8 -18 26 -48 41 -65 14 -17 21 -31 16 -31
-18 0 -82 86 -82 109 0 30 9 26 25 -13z m-1455 10 c0 -7 -18 -33 -41 -57 -43
-47 -42 -40 4 29 30 45 37 50 37 28z m-1270 -22 c0 -8 -4 -12 -10 -9 -5 3 -10
10 -10 16 0 5 5 9 10 9 6 0 10 -7 10 -16z m1127 -5 c8 -8 0 -22 -30 -53 -113
-112 -135 -152 -104 -186 10 -12 9 -12 -5 -1 -30 23 -21 65 28 138 48 71 83
113 94 113 3 0 11 -5 17 -11z m1798 -66 c30 -43 59 -94 65 -112 11 -39 0 -56
-55 -93 -29 -19 -29 -19 4 12 32 31 50 80 30 80 -6 0 -7 5 -4 10 3 6 1 10 -4
10 -6 0 -11 7 -11 15 0 8 -4 15 -9 15 -5 0 -26 23 -46 50 -30 41 -42 50 -67
50 l-30 0 23 20 c13 10 29 19 36 20 7 0 37 -35 68 -77z m1198 70 c-7 -2 -19
-2 -25 0 -7 3 -2 5 12 5 14 0 19 -2 13 -5z m3 -43 c1 -22 -3 -30 -15 -30 -11
0 -16 9 -16 30 -1 21 4 30 15 30 10 0 16 -10 16 -30z m-1456 -5 c0 -8 -4 -15
-10 -15 -5 0 -10 7 -10 15 0 8 5 15 10 15 6 0 10 -7 10 -15z m-1370 -13 c0 -5
-9 -19 -20 -32 -25 -28 -26 -18 -2 15 19 27 22 29 22 17z m1566 -24 l19 -23
-25 20 c-14 11 -27 21 -29 22 -2 2 0 3 6 3 5 0 18 -10 29 -22z m-2641 2 c3 -6
-6 -15 -20 -20 -15 -6 -29 -19 -32 -30 -6 -23 -23 -17 -23 7 0 37 58 70 75 43z
m673 -38 c26 -3 32 -8 31 -25 -1 -18 -2 -19 -6 -4 -3 12 -10 16 -20 13 -9 -4
-22 -1 -29 5 -11 9 -14 8 -14 -5 0 -9 -3 -16 -8 -16 -4 0 -6 19 -3 43 4 35 5
38 11 17 4 -19 13 -26 38 -28z m1801 14 c-3 -3 -11 5 -18 17 -13 21 -12 21 5
5 10 -10 16 -20 13 -22z m1095 18 c18 -17 22 -54 6 -54 -5 0 -10 6 -10 14 0 7
-7 20 -16 27 -14 11 -18 10 -30 -6 -14 -18 -14 -18 -14 1 0 12 3 24 7 27 11
12 41 7 57 -9z m185 -66 c-50 -101 -161 -287 -190 -319 l-21 -24 16 27 c9 15
40 67 70 116 29 48 77 132 105 185 29 53 55 97 57 97 2 0 -14 -37 -37 -82z
m-3853 -223 c54 -81 56 -85 49 -85 -10 0 -126 183 -165 260 -64 128 -55 132
12 5 35 -66 82 -147 104 -180z m2994 270 c0 -14 -3 -24 -7 -23 -5 1 -18 -4
-31 -11 -25 -14 -52 -9 -52 10 0 9 4 8 14 0 19 -16 56 6 56 31 0 10 5 18 10
18 6 0 10 -11 10 -25z m1013 18 c-7 -2 -21 -2 -30 0 -10 3 -4 5 12 5 17 0 24
-2 18 -5z m-3746 -75 c69 -108 185 -249 295 -359 54 -54 98 -102 98 -108 0
-10 137 -104 157 -107 7 -1 51 -26 97 -55 75 -47 83 -55 74 -72 -6 -11 -13
-15 -17 -10 -3 5 -42 34 -86 63 -44 30 -84 58 -90 62 -5 4 -44 30 -86 58 -127
83 -327 285 -392 395 -9 17 -36 63 -59 103 -23 39 -45 72 -49 72 -4 0 -40 -20
-80 -44 -61 -37 -75 -42 -82 -30 -11 19 5 38 43 54 20 8 27 17 23 28 -4 13 -3
14 5 4 7 -11 15 -11 43 2 19 8 40 15 47 15 7 1 33 -32 59 -71z m3346 35 c73
-35 90 -53 67 -68 -11 -7 -110 44 -142 72 -15 13 -18 12 -31 -9 -70 -114 -94
-154 -108 -181 -22 -41 -173 -203 -264 -281 -56 -48 -71 -56 -73 -42 -3 11 24
43 77 93 99 92 222 237 304 360 34 51 69 93 77 93 8 0 50 -16 93 -37z m-1103
-18 c-7 -8 -20 -15 -29 -15 -14 1 -14 2 2 14 9 7 17 19 17 27 0 10 3 10 12 1
8 -8 8 -15 -2 -27z m-1265 -5 c5 0 18 8 29 17 19 15 18 14 -1 -7 -19 -21 -25
-22 -48 -12 -14 6 -25 17 -25 23 0 8 7 6 18 -4 10 -10 22 -17 27 -17z m1215 9
c0 -6 -4 -7 -10 -4 -5 3 -10 11 -10 16 0 6 5 7 10 4 6 -3 10 -11 10 -16z
m-2220 -86 c6 -7 9 -13 6 -13 -2 0 9 -14 25 -31 32 -34 38 -55 13 -45 -8 3
-13 2 -10 -3 7 -10 -82 -66 -91 -58 -3 3 9 13 25 21 17 9 34 20 37 26 6 10
-35 101 -59 130 -11 13 -12 20 -7 47 0 4 12 -9 26 -28 13 -19 29 -40 35 -46z
m3297 70 c-4 -3 -1 -13 6 -21 10 -13 9 -15 -7 -9 -17 7 -17 6 -5 -10 12 -15
12 -16 -5 -10 -14 6 -17 4 -12 -8 3 -9 -4 -36 -17 -61 l-22 -46 21 -16 c12
-10 30 -23 40 -30 11 -7 -3 -1 -31 13 -84 41 -82 33 -30 124 26 44 52 81 58
81 6 0 7 -3 4 -7z m-947 -14 c0 -13 -160 -88 -261 -122 -137 -46 -421 -94
-405 -68 4 6 20 11 35 11 76 0 372 67 394 89 5 5 1 23 -7 40 -9 17 -12 31 -7
31 5 0 14 -13 21 -30 7 -17 20 -30 29 -30 10 0 58 20 107 44 49 25 90 45 92
45 1 1 2 -4 2 -10z m-1604 -34 c-19 -29 -56 -31 -64 -5 -4 12 -2 13 9 3 20
-19 34 -16 49 12 7 14 15 23 18 20 3 -2 -3 -16 -12 -30z m230 0 c41 -20 88
-38 104 -41 26 -6 31 -2 45 27 17 37 16 40 2 -34 -4 -21 223 -79 361 -93 39
-3 72 -11 72 -16 0 -26 -277 24 -431 78 -127 44 -270 114 -233 114 3 0 39 -16
80 -35z m1573 -1 c24 22 29 5 5 -18 -21 -22 -27 -20 -52 14 -29 39 -28 48 2
13 24 -27 24 -28 45 -9z m-88 -21 c49 -67 52 -74 36 -67 -8 3 -28 24 -44 47
-41 57 -46 67 -35 67 5 0 24 -21 43 -47z m-2515 -8 c29 -49 35 -76 19 -81 -10
-4 -35 40 -35 61 0 19 -37 48 -45 36 -3 -6 -2 -11 3 -11 6 0 13 -7 16 -16 5
-14 4 -15 -9 -4 -24 20 -18 -2 10 -34 34 -39 31 -48 -7 -32 -29 12 -78 66 -78
86 0 8 67 39 87 39 7 1 24 -19 39 -44z m568 30 c23 -17 13 -34 -11 -19 -19 12
-29 34 -16 34 4 0 17 -7 27 -15z m1840 -10 c-38 -28 -261 -114 -364 -139 -107
-26 -299 -52 -322 -43 -7 2 14 7 47 11 209 22 429 83 585 161 65 33 91 38 54
10z m398 -7 c-6 -6 -16 -7 -23 -3 -9 6 -7 12 7 22 21 15 34 -1 16 -19z m641
16 c18 -9 34 -18 36 -20 2 -2 -8 -23 -22 -47 -18 -30 -35 -46 -52 -49 -33 -7
-42 8 -20 32 9 10 14 23 11 29 -4 5 -1 13 5 17 8 5 9 3 4 -6 -5 -9 -4 -11 3
-6 17 10 15 36 -3 36 -9 0 -24 -13 -33 -30 -9 -16 -20 -30 -24 -30 -4 0 -5 -6
-2 -14 3 -8 -3 -16 -15 -19 -12 -3 -21 -2 -21 3 0 17 75 120 88 120 7 0 27 -7
45 -16z m-2440 -28 c164 -77 367 -132 530 -143 54 -3 100 -10 103 -15 7 -11
-21 -10 -131 2 -175 20 -438 99 -547 164 -60 36 -40 32 45 -8z m2877 19 c0
-12 -16 -15 -85 -15 -69 0 -85 3 -85 15 0 12 16 15 85 15 69 0 85 -3 85 -15z
m-4060 -15 c6 -11 8 -20 6 -20 -3 0 -10 9 -16 20 -6 11 -8 20 -6 20 3 0 10 -9
16 -20z m694 -29 c4 -5 -3 -7 -14 -4 -18 5 -25 -5 -21 -30 1 -5 -3 -6 -9 -2
-7 4 -7 12 0 26 11 20 35 25 44 10z m2356 -16 c0 -8 -7 -21 -16 -29 -22 -22
-31 -20 -11 2 20 22 21 32 4 32 -7 0 -44 -32 -82 -71 -39 -39 -88 -84 -110
-101 -22 -17 10 19 71 81 79 79 117 109 128 105 9 -3 16 -12 16 -19z m1005 -7
c-3 -18 -10 -64 -15 -103 -16 -106 -51 -288 -58 -299 -8 -14 -92 367 -92 421
0 10 23 13 85 13 l86 0 -6 -32z m-3285 7 c-10 -12 -8 -17 11 -26 13 -6 40 -30
59 -53 l34 -41 -39 36 c-71 63 -73 64 -95 44 -25 -23 -25 -33 2 -64 13 -16 9
-13 -12 6 l-33 32 34 40 c31 36 68 61 39 26z m2110 -10 c0 -7 -7 -15 -15 -19
-15 -5 -22 24 -9 37 9 9 24 -2 24 -18z m-2050 6 c0 -4 21 -25 47 -45 60 -47
46 -47 -18 0 -47 34 -61 54 -39 54 6 0 10 -4 10 -9z m335 -27 c33 -18 100 -46
150 -63 49 -18 91 -34 93 -36 3 -2 -34 -82 -43 -93 -1 -1 -28 7 -59 19 -31 12
-58 20 -60 18 -1 -2 -18 -40 -36 -84 -18 -44 -50 -117 -71 -163 l-38 -82 -55
27 c-67 32 -69 18 25 205 38 76 69 141 69 146 0 4 -15 13 -33 20 -18 6 -41 18
-51 25 -18 13 -17 15 8 56 15 23 30 41 34 39 4 -2 34 -17 67 -34z m1785 16 c0
-13 -7 -20 -20 -20 -10 0 -35 -14 -55 -31 -49 -43 -44 -21 6 30 45 45 69 52
69 21z m-352 -25 c12 -19 22 -38 22 -43 0 -4 -20 -18 -45 -30 l-46 -22 24 -43
c109 -190 148 -269 138 -281 -6 -7 -29 -21 -52 -31 -40 -19 -41 -19 -53 0 -15
27 -155 288 -159 298 -1 5 -26 -1 -55 -12 -29 -12 -56 -21 -60 -21 -5 0 -18
20 -30 45 -20 42 -21 46 -5 51 53 16 206 79 239 99 52 31 55 30 82 -10z m162
10 c-7 -8 -17 -15 -23 -15 -6 0 -2 7 9 15 25 19 30 19 14 0z m-1982 -44 c3 -8
-1 -12 -9 -9 -7 2 -15 10 -17 17 -3 8 1 12 9 9 7 -2 15 -10 17 -17z m-460 -58
l-27 -27 -26 24 c-32 30 -32 34 8 53 30 15 33 15 52 -3 19 -20 19 -20 -7 -47z
m3123 52 c24 -13 28 -19 20 -34 -21 -38 -35 -41 -66 -17 -30 24 -30 24 -11 45
23 25 20 25 57 6z m389 11 c0 -11 -19 -15 -25 -6 -3 5 1 10 9 10 9 0 16 -2 16
-4z m-3534 -137 c100 -117 254 -261 343 -325 40 -28 70 -56 71 -66 0 -10 -3
-18 -6 -18 -12 0 -163 121 -239 192 -125 115 -265 273 -265 299 0 22 23 3 96
-82z m388 75 c29 -29 10 -94 -27 -94 -6 0 -1 7 11 16 27 19 29 60 3 74 -26 13
-71 -4 -72 -27 0 -12 -2 -13 -6 -5 -7 19 26 52 53 52 12 0 30 -7 38 -16z
m2407 6 c24 -13 26 -62 3 -85 -24 -23 -66 -15 -83 16 -13 24 -13 29 2 53 18
27 45 33 78 16z m398 -22 c-50 -72 -154 -190 -227 -259 -68 -64 -253 -209
-267 -209 -3 0 -5 7 -5 15 0 8 35 40 78 72 83 61 325 293 382 367 41 53 74 64
39 14z m-3059 -59 l73 -81 -26 -26 c-25 -24 -28 -25 -43 -10 -15 14 -14 18 2
44 18 29 18 29 -2 12 -25 -22 -38 -23 -55 -2 -11 13 -10 17 4 25 9 6 17 15 17
21 0 6 -9 3 -20 -7 -19 -17 -22 -18 -37 -2 -16 16 -15 19 12 49 27 29 27 30 5
15 -40 -28 -52 -31 -60 -17 -6 10 1 21 23 37 17 13 32 23 33 23 0 0 34 -36 74
-81z m2958 62 c43 -37 18 -64 -28 -31 -18 13 -27 26 -23 35 7 20 23 18 51 -4z
m-3438 -31 c7 -16 12 -54 11 -84 0 -37 5 -60 15 -71 14 -13 13 -15 -5 -15 -19
0 -21 6 -21 70 0 75 -16 124 -37 116 -13 -5 -18 6 -7 17 11 11 32 -5 44 -33z
m864 11 c-2 -3 -12 3 -22 13 -16 17 -16 18 5 5 12 -7 20 -15 17 -18z m-141 7
c7 -20 -12 -48 -33 -48 -19 0 -36 32 -25 50 9 14 52 12 58 -2z m947 -13 c52
-8 110 -15 128 -15 l33 0 -3 -47 -3 -48 -45 0 c-25 1 -70 3 -100 5 l-55 5 0
-40 0 -40 75 -10 75 -10 -3 -40 c-2 -22 -5 -42 -8 -44 -2 -2 -39 1 -81 7 -43
6 -79 9 -81 7 -2 -2 -7 -20 -12 -40 -10 -43 -15 -41 116 -64 l99 -17 -4 -45
c-1 -24 -5 -46 -7 -48 -5 -5 -122 14 -251 40 -81 17 -103 25 -103 38 0 10 13
69 28 132 16 63 37 156 48 207 17 84 20 93 39 88 11 -3 63 -12 115 -21z m1580
15 c0 -5 -2 -10 -4 -10 -3 0 -8 5 -11 10 -3 6 -1 10 4 10 6 0 11 -4 11 -10z
m574 -11 c-3 -5 -10 -7 -15 -3 -5 3 -7 10 -3 15 3 5 10 7 15 3 5 -3 7 -10 3
-15z m-406 -66 c-16 -16 -19 -16 -36 0 -10 9 -23 17 -28 17 -5 -1 2 -10 15
-20 19 -17 21 -23 11 -35 -17 -20 -25 -19 -61 7 l-29 22 42 43 42 43 30 -30
c29 -28 29 -31 14 -47z m-1231 57 c76 -17 79 -21 52 -69 -19 -33 -28 -40 -44
-35 -11 3 -43 8 -70 11 -41 4 -55 1 -75 -15 -20 -17 -23 -24 -14 -39 9 -14 31
-20 100 -26 143 -13 204 -56 204 -144 0 -54 -28 -93 -91 -128 -47 -26 -64 -30
-134 -30 -66 0 -90 5 -137 27 -32 15 -58 30 -58 34 0 5 12 25 26 45 l26 37 41
-19 c76 -34 197 -16 197 30 0 27 -5 29 -105 40 -107 13 -153 34 -178 84 -25
48 -17 95 25 142 48 56 136 76 235 55z m-1507 -49 c12 -12 10 -11 -9 0 -14 9
-27 22 -29 30 -3 11 -2 11 9 -1 8 -8 21 -21 29 -29z m2323 -16 c22 -29 48 -63
59 -75 19 -21 20 -23 3 -38 -13 -12 -19 -14 -22 -5 -2 7 -26 45 -53 84 -44 65
-53 90 -32 89 4 -1 24 -25 45 -55z m-2744 -1 c37 -54 38 -60 9 -75 -23 -13
-38 1 -75 69 -16 29 -16 34 -3 42 26 17 38 11 69 -36z m582 2 c-11 -17 -34
-55 -51 -83 -33 -56 -36 -58 -59 -44 -11 7 -2 26 45 89 34 46 64 77 72 75 9
-4 8 -13 -7 -37z m2774 30 c18 -13 17 -15 -11 -60 -30 -47 -52 -57 -73 -32 -9
11 -6 22 14 51 14 21 25 42 25 46 0 13 24 11 45 -5z m155 -51 c0 -19 -4 -35
-10 -35 -5 0 -10 16 -10 35 0 19 5 35 10 35 6 0 10 -16 10 -35z m-807 -74 c27
-34 45 -61 40 -61 -10 0 -123 145 -123 157 0 4 8 -2 18 -14 9 -12 39 -49 65
-82z m357 54 c22 -23 22 -27 8 -41 -13 -14 -18 -13 -47 12 -25 21 -29 29 -20
40 17 20 32 17 59 -11z m-2449 -37 c-43 -61 -57 -78 -64 -78 -3 0 15 29 41 64
26 35 49 62 50 61 2 -2 -10 -23 -27 -47z m-287 7 c19 -15 19 -16 -9 -45 -29
-30 -29 -30 -49 -10 -20 19 -20 20 4 45 27 29 29 29 54 10z m2696 -10 c19 -20
21 -27 10 -40 -18 -21 -33 -19 -60 10 -19 20 -21 27 -10 40 18 21 33 19 60
-10z m537 -117 c-2 -29 -3 -8 -3 47 0 55 1 79 3 53 2 -26 2 -71 0 -100z
m-3164 -181 c70 -61 77 -71 53 -80 -10 -4 -13 -1 -10 7 3 8 -29 41 -78 81 -95
78 -298 274 -298 288 0 5 60 -46 133 -114 72 -68 162 -150 200 -182z m-19 264
c9 -10 55 -45 101 -77 47 -32 85 -61 85 -66 0 -5 -11 -13 -24 -18 -14 -5 -26
-19 -28 -31 -3 -19 -11 -15 -80 41 -43 34 -78 65 -78 70 0 4 7 13 15 20 8 7
15 17 15 23 0 6 -11 0 -25 -13 -20 -19 -27 -21 -40 -10 -20 17 -19 29 7 57 26
28 30 28 52 4z m2596 -6 l24 -25 -22 -22 -22 -22 -27 25 -28 24 25 -28 24 -28
-28 -23 c-16 -12 -60 -43 -97 -67 -37 -24 -68 -51 -68 -60 -1 -17 -20 -29 -46
-29 -7 0 -20 12 -30 26 -14 22 -15 30 -4 50 7 13 18 24 26 24 7 0 13 4 13 9 0
5 42 39 93 74 51 36 99 72 106 81 19 22 34 20 61 -9z m174 -46 c-32 -33 -116
-111 -187 -171 -70 -61 -125 -113 -122 -116 11 -12 159 111 308 257 48 47 87
81 87 76 0 -32 -379 -363 -400 -350 -22 13 -6 33 93 117 56 48 140 125 186
172 47 47 87 83 90 80 3 -2 -22 -32 -55 -65z m-3009 -20 c44 -44 126 -119 183
-166 97 -82 138 -130 70 -82 -94 66 -361 312 -350 323 11 11 18 5 97 -75z
m3253 16 c-3 -48 -1 -55 15 -55 41 0 8 -25 -36 -28 -37 -2 -47 0 -47 12 0 9 8
16 18 16 14 0 17 8 14 55 -4 51 -2 55 18 55 20 0 22 -4 18 -55z m-568 20 c-7
-9 -34 -28 -59 -42 -25 -15 -55 -34 -66 -44 -40 -34 -170 -117 -177 -113 -5 3
-8 10 -8 15 0 11 163 119 179 119 7 0 17 5 24 10 25 22 112 78 116 74 2 -2 -2
-11 -9 -19z m-3315 -33 c-3 -3 -11 0 -18 7 -9 10 -8 11 6 5 10 -3 15 -9 12
-12z m285 -3 c-11 -8 -7 -9 18 -5 35 6 72 -7 72 -25 0 -6 -4 -8 -9 -4 -5 3
-12 1 -15 -4 -4 -5 8 -19 25 -31 26 -20 34 -21 57 -10 25 11 29 9 61 -27 18
-21 26 -27 17 -13 -48 74 -44 85 5 13 18 -25 27 -43 21 -39 -7 4 -12 1 -12 -9
0 -8 -6 -18 -14 -21 -11 -4 -13 -22 -9 -84 5 -67 3 -84 -16 -124 -25 -50 -78
-97 -137 -122 -104 -44 -256 36 -290 153 -10 35 -13 68 -9 96 6 36 5 40 -7 25
-9 -12 -18 -15 -27 -9 -12 8 -13 16 -3 50 7 22 18 43 24 47 7 4 8 3 4 -4 -4
-7 -1 -12 9 -12 12 0 14 -7 9 -27 -3 -18 5 -8 24 27 22 42 26 56 16 58 -8 2
-14 9 -14 17 0 15 28 40 37 32 3 -4 14 -2 24 4 13 6 25 6 38 -2 15 -10 26 -10
50 1 32 13 39 24 21 35 -16 10 -1 25 23 25 18 0 19 -2 7 -11z m-290 -17 c0 -5
-7 -9 -15 -9 -8 0 -15 4 -15 9 0 4 7 8 15 8 8 0 15 -4 15 -8z m3730 -1 c0 -6
-4 -13 -10 -16 -5 -3 -10 1 -10 9 0 9 5 16 10 16 6 0 10 -4 10 -9z m-3560 -6
c0 -2 -10 -9 -22 -15 -22 -11 -22 -10 -4 4 21 17 26 19 26 11z m4140 -64 l25
-7 3 -227 2 -227 -25 0 c-22 0 -24 3 -15 19 5 11 10 23 10 28 0 13 -61 7 -70
-7 -6 -9 -10 -1 -12 26 l-3 39 -80 1 -80 0 73 -3 c80 -4 91 -13 74 -60 -7 -18
-11 -21 -11 -10 -1 14 -10 17 -50 17 -39 0 -51 4 -54 18 -3 9 -5 2 -6 -15 -1
-31 1 -33 32 -34 25 -1 20 -4 -21 -11 -30 -5 -55 -8 -58 -6 -2 3 -7 102 -10
221 -4 119 -11 217 -16 217 -4 0 -8 -7 -8 -15 0 -12 -20 -15 -120 -15 l-120 0
0 -195 0 -195 120 0 c76 0 120 -4 120 -10 0 -7 -47 -10 -132 -8 l-133 3 -3
219 c-2 153 1 223 9 232 9 11 62 14 273 13 143 -1 272 -4 286 -8z m-3205 -14
c31 -6 16 -56 -25 -84 -21 -15 -24 -15 -35 0 -7 9 -15 14 -18 10 -17 -16 -5
32 14 59 15 20 27 27 38 23 9 -4 21 -7 26 -8z m69 -35 c2 -4 -9 -30 -26 -57
-25 -40 -32 -46 -39 -32 -7 12 -2 28 17 57 26 39 38 48 48 32z m1980 -30 c27
-39 33 -62 16 -62 -12 0 -60 70 -60 87 0 23 17 14 44 -25z m-1754 -7 c27 -13
51 -29 54 -33 3 -5 -12 -46 -34 -91 -22 -46 -40 -86 -40 -90 0 -12 163 -59
294 -86 254 -52 604 -58 851 -15 133 23 375 88 375 101 0 5 -16 41 -36 82
l-36 72 -84 -27 c-227 -74 -555 -105 -812 -77 -165 18 -485 89 -469 105 2 2
69 -11 148 -31 348 -84 697 -87 1027 -10 110 26 192 58 192 73 0 8 88 52 103
52 4 0 99 -166 115 -201 8 -17 -352 -129 -497 -154 -308 -54 -700 -37 -1006
42 -116 30 -305 100 -305 113 0 12 100 200 106 200 3 0 27 -11 54 -25z m2250
10 c0 -8 -4 -15 -10 -15 -5 0 -10 7 -10 15 0 8 5 15 10 15 6 0 10 -7 10 -15z
m-2966 -12 c3 -10 9 -24 12 -30 4 -9 -3 -13 -20 -13 -28 0 -29 3 -20 38 8 26
19 29 28 5z m546 -7 c0 -6 -13 -30 -28 -53 -22 -34 -31 -40 -45 -32 -23 13
-22 18 13 67 20 26 36 39 45 35 8 -3 15 -10 15 -17z m1887 -23 c17 -26 30 -50
27 -55 -10 -16 -34 -8 -50 18 -11 16 -20 21 -24 14 -5 -8 -9 -6 -13 5 -4 10
-3 14 4 9 7 -4 9 1 4 15 -6 21 0 41 13 41 4 0 21 -22 39 -47z m130 -11 c-26
-28 -106 -76 -113 -69 -5 5 122 97 134 97 3 0 -6 -13 -21 -28z m421 21 c-10
-2 -28 -2 -40 0 -13 2 -5 4 17 4 22 1 32 -1 23 -4z m180 -5 c-3 -7 -15 -13
-28 -13 -13 0 -25 6 -27 13 -3 8 6 12 27 12 21 0 30 -4 28 -12z m70 0 c-3 -7
-15 -13 -28 -13 -13 0 -25 6 -27 13 -3 8 6 12 27 12 21 0 30 -4 28 -12z m72
-3 c0 -9 -9 -15 -25 -15 -16 0 -25 6 -25 15 0 9 9 15 25 15 16 0 25 -6 25 -15z
m-2869 -58 c18 -13 14 -12 -16 3 -22 12 -51 30 -65 41 -21 17 -18 17 16 -3 22
-12 52 -31 65 -41z m1048 32 l24 -20 -23 -24 -22 -24 -29 21 -29 22 22 23 c26
28 27 28 57 2z m-1481 -31 c-2 -13 -7 -21 -12 -20 -5 2 -13 -2 -17 -10 -6 -9
-9 -2 -9 20 0 26 4 32 21 32 15 0 20 -5 17 -22z m2812 12 c0 -5 -2 -10 -4 -10
-3 0 -8 5 -11 10 -3 6 -1 10 4 10 6 0 11 -4 11 -10z m343 -5 c-3 -13 -53 -20
-53 -7 0 15 13 23 35 20 11 -2 19 -7 18 -13z m77 -5 c0 -5 -11 -10 -25 -10
-14 0 -25 5 -25 10 0 6 11 10 25 10 14 0 25 -4 25 -10z m70 0 c0 -5 -11 -10
-25 -10 -14 0 -25 5 -25 10 0 6 11 10 25 10 14 0 25 -4 25 -10z m-3152 -27
c-16 -2 -40 -2 -55 0 -16 2 -3 4 27 4 30 0 43 -2 28 -4z m678 -3 c8 0 14 -5
14 -10 0 -6 -11 -8 -25 -4 -28 7 -35 -12 -12 -35 10 -10 8 -12 -7 -9 -30 5
-29 -17 1 -29 l28 -11 -25 -1 c-46 -1 -52 10 -33 62 12 32 22 46 31 42 8 -3
20 -5 28 -5z m1276 -10 c-30 -7 -29 -24 2 -28 29 -4 48 -23 38 -39 -10 -16
-62 -28 -62 -15 0 6 10 12 23 14 33 5 27 23 -10 26 -25 3 -33 8 -33 23 0 20
37 41 55 31 5 -3 -1 -9 -13 -12z m881 14 c3 -3 3 -12 0 -20 -7 -19 -133 -20
-133 -1 0 8 3 17 7 20 8 9 117 9 126 1z m-3123 -37 c0 -18 -7 -42 -16 -53 -15
-18 -15 -18 -10 6 3 14 6 37 6 53 0 15 5 27 10 27 6 0 10 -15 10 -33z m3300 8
c0 -10 -10 -15 -30 -15 -20 0 -30 5 -30 15 0 10 10 15 30 15 20 0 30 -5 30
-15z m70 0 c0 -9 -9 -15 -25 -15 -16 0 -25 6 -25 15 0 9 9 15 25 15 16 0 25
-6 25 -15z m70 0 c0 -9 -9 -15 -25 -15 -16 0 -25 6 -25 15 0 9 9 15 25 15 16
0 25 -6 25 -15z m-3937 -57 c9 -27 12 -48 7 -48 -15 0 -52 80 -45 98 8 21 19
6 38 -50z m635 -41 l3 -97 -26 0 c-23 0 -25 4 -25 43 0 24 5 48 12 55 9 9 9
12 0 12 -16 0 -16 77 1 83 27 11 32 -3 35 -96z m888 71 l16 -32 13 30 c18 40
18 2 0 -46 l-13 -35 -17 40 -18 40 -11 -33 c-6 -18 -14 -30 -18 -27 -6 6 20
95 28 95 2 0 11 -14 20 -32z m1124 12 l-25 -19 25 -10 c14 -5 19 -10 13 -10
-7 -1 -13 -8 -13 -17 0 -11 6 -14 20 -9 11 3 20 2 20 -3 0 -11 -48 -23 -54
-13 -2 3 -7 23 -11 45 -8 40 2 56 35 56 10 0 7 -7 -10 -20z m-62 -14 c-10 -7
-16 -15 -14 -17 8 -10 15 -69 7 -69 -5 0 -12 16 -15 35 -4 21 -13 35 -21 35
-24 0 -17 18 8 23 46 9 53 7 35 -7z m802 4 c0 -5 -4 -10 -10 -10 -5 0 -10 5
-10 10 0 6 5 10 10 10 6 0 10 -4 10 -10z m-2579 -21 c15 -28 -3 -69 -30 -69
-26 0 -51 10 -51 21 0 5 8 4 19 -2 40 -26 71 22 35 52 -14 11 -19 10 -35 -10
-22 -27 -34 -23 -24 8 9 30 70 29 86 0z m229 11 c0 -5 -5 -10 -11 -10 -5 0 -7
5 -4 10 3 6 8 10 11 10 2 0 4 -4 4 -10z m618 -8 c3 -11 0 -11 -16 -1 -17 10
-23 10 -37 -1 -24 -20 -15 -54 15 -58 21 -3 22 -2 11 12 -11 14 -11 16 3 16
27 0 16 -44 -11 -48 -41 -6 -60 47 -30 86 13 16 59 12 65 -6z m38 -47 c-4 -25
-12 -45 -17 -45 -6 0 -8 8 -5 18 2 9 8 32 11 50 10 49 19 31 11 -23z m816 38
c35 -31 17 -83 -29 -83 -38 0 -56 55 -27 84 20 20 33 20 56 -1z m648 11 c0 -6
-166 -84 -178 -83 -7 0 156 84 171 87 4 1 7 -1 7 -4z m-1400 -46 c0 -4 5 -8
10 -8 6 0 10 12 10 26 0 14 3 23 8 20 10 -6 2 -96 -9 -96 -5 0 -15 11 -21 25
-14 30 -28 33 -28 5 0 -11 -4 -20 -9 -20 -9 0 -9 5 4 65 6 29 7 29 21 11 8
-11 14 -23 14 -28z m2038 30 c-3 -7 -15 -13 -28 -13 -13 0 -25 6 -27 13 -3 8
6 12 27 12 21 0 30 -4 28 -12z m70 0 c-7 -20 -48 -23 -48 -4 0 11 9 16 26 16
16 0 24 -5 22 -12z m72 -4 c0 -10 -7 -14 -22 -12 -32 5 -35 28 -4 28 17 0 26
-5 26 -16z m-3157 -9 c1 -5 -6 -11 -15 -13 -11 -2 -18 3 -18 13 0 17 30 18 33
0z m1087 5 c0 -5 -9 -10 -20 -10 -24 0 -26 -18 -3 -27 15 -6 15 -7 -1 -13 -24
-8 -22 -24 6 -32 20 -5 18 -6 -9 -7 -31 -1 -33 1 -33 33 0 19 3 41 6 50 7 17
54 22 54 6z m63 -8 c-27 -4 -31 -32 -5 -33 13 0 12 -2 -5 -9 -28 -11 -30 -30
-4 -30 11 0 23 -4 26 -10 4 -6 -7 -10 -24 -10 -30 0 -31 1 -31 48 0 27 2 51 5
54 3 3 18 3 33 -1 25 -5 25 -6 5 -9z m472 -9 c-4 16 -3 27 3 27 9 0 23 -80 15
-89 -2 -3 -14 6 -28 19 l-25 23 0 -28 c0 -41 -18 -19 -20 25 -3 55 -2 56 31
24 l31 -29 -7 28z m-365 2 c7 -9 9 -22 5 -32 -5 -10 -7 -26 -6 -35 1 -10 -3
-18 -8 -18 -6 0 -11 7 -11 15 0 8 -7 15 -15 15 -8 0 -15 -7 -15 -15 0 -8 -4
-15 -10 -15 -5 0 -10 23 -10 50 0 48 1 50 29 50 16 0 34 -7 41 -15z m37 -62
c-2 -16 -4 -3 -4 27 0 30 2 43 4 28 2 -16 2 -40 0 -55z m113 15 c0 -21 -2 -38
-5 -38 -3 0 -17 12 -30 28 l-24 27 -1 -27 c0 -16 -4 -28 -10 -28 -5 0 -10 20
-10 45 0 52 10 56 39 18 l20 -28 1 35 c0 49 20 18 20 -32z m88 44 c3 -9 -3
-11 -21 -7 -17 5 -26 2 -30 -9 -10 -26 4 -46 32 -46 25 1 25 1 7 15 -19 15
-19 15 3 15 18 0 22 -5 19 -22 -3 -26 -41 -36 -64 -18 -17 15 -18 62 -2 78 16
16 50 12 56 -6z m1345 -7 c-4 -12 -19 -15 -66 -13 -37 2 -62 8 -65 16 -3 9 15
12 67 12 59 0 69 -2 64 -15z m-2443 -20 c25 -13 41 -24 35 -24 -5 0 -30 11
-55 24 -25 13 -40 24 -35 24 6 0 30 -11 55 -24z m2618 -2 c2 -9 -7 -13 -27
-13 -21 0 -31 5 -31 16 0 19 51 16 58 -3z m70 0 c2 -8 -6 -13 -22 -13 -17 0
-26 5 -26 16 0 19 41 16 48 -3z m72 2 c0 -9 -9 -15 -25 -15 -16 0 -25 6 -25
15 0 9 9 15 25 15 16 0 25 -6 25 -15z m-3015 -9 c10 -7 27 -11 37 -8 27 7 74
-16 86 -43 22 -48 -19 -115 -70 -115 -28 0 -78 38 -78 60 0 5 -7 10 -15 10 -8
0 -15 5 -15 11 0 5 4 8 9 4 5 -3 17 9 25 27 15 29 15 33 0 50 -20 21 -6 24 21
4z m2336 -10 c-9 -10 -9 -20 0 -40 7 -14 16 -26 20 -26 13 0 -32 -70 -51 -80
-54 -29 -120 11 -120 74 0 44 37 76 89 76 20 0 43 4 51 10 19 12 26 4 11 -14z
m-301 -6 c-8 -5 -19 -10 -25 -10 -5 0 -3 5 5 10 8 5 20 10 25 10 6 0 3 -5 -5
-10z m-1645 -30 c28 -12 38 -18 24 -16 -15 3 -46 15 -70 26 -54 25 -22 18 46
-10z m-1215 -10 c19 -17 30 -30 24 -30 -5 0 -25 13 -44 30 -19 16 -30 29 -25
29 6 0 26 -13 45 -29z m300 5 c-13 -14 -30 -25 -39 -25 -9 0 0 11 19 25 45 31
49 31 20 0z m2510 16 c-8 -5 -26 -11 -40 -15 -21 -5 -20 -3 5 9 32 15 60 20
35 6z m888 -13 c-3 -7 -15 -13 -28 -13 -13 0 -25 6 -27 13 -3 8 6 12 27 12 21
0 30 -4 28 -12z m72 3 c0 -15 -16 -22 -34 -15 -25 9 -19 24 9 24 14 0 25 -4
25 -9z m70 -6 c0 -9 -9 -15 -25 -15 -16 0 -25 6 -25 15 0 9 9 15 25 15 16 0
25 -6 25 -15z m-3986 -17 c17 -19 17 -55 -1 -62 -32 -13 -54 32 -30 60 15 17
16 17 31 2z m2856 -3 c-19 -7 -42 -13 -50 -13 -8 0 1 6 20 13 19 7 42 13 50
13 8 0 -1 -6 -20 -13z m-2009 -16 c11 -11 18 -27 15 -36 -3 -8 -6 -19 -6 -23
0 -5 -9 -14 -21 -20 -16 -9 -26 -8 -45 5 -33 21 -34 72 -1 85 32 13 35 12 58
-11z m429 6 c6 -8 9 -23 5 -35 -9 -27 -55 -28 -62 0 -4 16 -14 20 -52 21 l-46
2 52 6 c28 4 55 10 59 14 12 11 31 8 44 -8z m1745 5 c3 -5 32 -11 63 -12 l57
-2 -52 -3 c-37 -3 -53 -8 -53 -18 0 -8 -8 -19 -18 -24 -22 -12 -52 4 -52 27 0
33 40 56 55 32z m-1535 -10 c18 -12 2 -12 -25 0 -13 6 -15 9 -5 9 8 0 22 -4
30 -9z m-800 -40 c0 -22 -4 -40 -9 -40 -28 0 -41 14 -41 46 0 30 3 34 25 34
23 0 25 -4 25 -40z m-132 -13 c-10 -12 -15 -12 -26 0 -11 11 -11 17 -2 28 10
13 14 13 27 0 11 -12 12 -17 1 -28z m-245 26 c-13 -2 -33 -2 -45 0 -13 2 -3 4
22 4 25 0 35 -2 23 -4z m1295 -8 c3 -3 2 -8 -1 -12 -4 -4 -13 -1 -19 5 -16 16
-28 15 -28 -1 0 -8 19 -19 42 -26 36 -11 42 -11 50 3 10 18 50 20 113 6 32 -7
26 -8 -26 -3 -62 5 -68 3 -74 -16 -8 -25 -16 -26 -84 -5 -40 11 -51 19 -47 30
3 9 6 20 6 26 0 10 57 4 68 -7z m1140 -12 c3 -17 -6 -24 -44 -37 -62 -21 -81
-20 -89 3 -4 13 -17 21 -38 24 -32 4 -32 4 4 5 21 1 42 -4 48 -12 17 -21 97 3
95 28 -3 24 20 14 24 -11z m-38 13 c0 -2 -9 -6 -20 -9 -11 -3 -20 -1 -20 4 0
5 9 9 20 9 11 0 20 -2 20 -4z m904 -11 c-4 -10 -20 -15 -45 -15 -28 0 -39 4
-39 15 0 11 12 15 45 15 35 0 43 -3 39 -15z m56 5 c0 -5 -4 -10 -10 -10 -5 0
-10 5 -10 10 0 6 5 10 10 10 6 0 10 -4 10 -10z m-1530 -33 c129 0 250 3 268 7
37 9 45 -8 10 -20 -30 -10 -501 -10 -551 0 -21 4 -35 11 -31 17 3 6 19 7 37 3
18 -4 138 -7 267 -7z m399 9 c-2 -2 -22 -6 -44 -9 -27 -4 -35 -3 -25 3 14 9
79 15 69 6z m-2680 -50 c27 -14 51 -53 51 -82 0 -30 -30 -71 -59 -84 -96 -39
-175 78 -102 151 33 32 67 37 110 15z m4670 -1 c16 -8 34 -28 40 -46 22 -63
-44 -140 -106 -124 -74 18 -99 111 -42 159 35 29 67 33 108 11z"/>
<path d="M213 4878 c-29 -32 -34 -53 -22 -88 30 -83 149 -58 149 31 0 69 -82
106 -127 57z m85 -30 c19 -19 14 -46 -13 -64 -24 -16 -27 -16 -45 1 -34 31
-19 75 25 75 12 0 26 -5 33 -12z"/>
<path d="M256 4833 c-12 -12 -6 -33 9 -33 8 0 15 6 15 14 0 17 -14 28 -24 19z"/>
<path d="M4876 4879 c-20 -16 -26 -29 -26 -58 0 -49 32 -81 82 -81 70 0 103
86 53 135 -30 31 -73 32 -109 4z m82 -31 c19 -19 14 -56 -9 -68 -16 -9 -26 -8
-45 5 -27 17 -29 27 -14 56 12 21 50 25 68 7z"/>
<path d="M4915 4830 c-7 -12 2 -30 16 -30 5 0 9 9 9 20 0 21 -15 27 -25 10z"/>
<path d="M2562 4768 c2 -17 10 -23 28 -23 18 0 26 6 28 23 2 12 -1 22 -6 22
-5 0 -9 -8 -8 -17 0 -10 -6 -18 -14 -18 -8 0 -14 8 -14 18 1 9 -3 17 -8 17 -5
0 -8 -10 -6 -22z"/>
<path d="M1290 4630 c0 -5 5 -10 10 -10 6 0 10 5 10 10 0 6 -4 10 -10 10 -5 0
-10 -4 -10 -10z"/>
<path d="M1312 4594 c-42 -29 -18 -104 34 -104 26 0 50 20 59 47 4 17 -1 29
-19 48 -29 29 -43 31 -74 9z m56 -16 c19 -19 14 -56 -8 -63 -24 -8 -50 10 -50
34 0 19 19 41 35 41 6 0 16 -5 23 -12z"/>
<path d="M4770 4660 c0 -5 5 -10 10 -10 6 0 10 5 10 10 0 6 -4 10 -10 10 -5 0
-10 -4 -10 -10z"/>
<path d="M632 4604 c-91 -45 -142 -127 -142 -229 0 -146 109 -255 255 -255
143 1 256 110 256 250 1 146 -111 260 -256 260 -46 0 -74 -7 -113 -26z m100
-29 c-2 -21 0 -45 4 -54 5 -10 10 3 14 39 5 54 6 55 34 52 76 -8 176 -97 196
-173 22 -79 -2 -162 -63 -227 -21 -21 -37 -30 -49 -26 -13 4 -16 1 -12 -9 3
-10 -5 -18 -27 -26 -18 -6 -34 -9 -36 -7 -3 2 5 7 16 11 13 4 18 12 14 21 -3
9 -13 13 -22 10 -10 -4 -9 -1 3 7 11 7 27 20 37 29 10 10 21 13 24 8 3 -5 -2
-13 -11 -18 -14 -8 -14 -10 4 -14 11 -3 26 -1 33 4 11 8 10 9 -3 4 -10 -3 -18
-1 -18 4 0 9 15 14 33 11 5 -1 5 3 2 9 -4 6 -13 9 -21 6 -7 -3 -18 3 -23 12
-6 10 -11 12 -11 5 0 -7 -3 -12 -7 -12 -22 4 -33 -3 -33 -18 0 -15 -2 -16 -10
-3 -7 11 -10 11 -10 2 0 -7 -4 -10 -10 -7 -5 3 -10 0 -11 -7 0 -7 -4 -3 -10
10 -11 28 -29 20 -29 -14 0 -26 -1 -27 -24 -18 -9 3 -13 11 -9 17 3 6 1 7 -5
3 -6 -4 -9 -14 -6 -24 5 -15 5 -15 -6 1 -6 9 -8 22 -4 29 5 7 3 8 -7 2 -8 -4
-19 -9 -26 -10 -13 -2 -26 23 -18 36 3 5 0 12 -7 16 -7 4 -10 4 -6 -1 4 -4 3
-14 -3 -21 -7 -9 -7 -19 0 -32 14 -26 42 -37 35 -14 -3 9 1 7 8 -6 8 -12 17
-19 21 -16 4 4 7 1 7 -6 0 -9 5 -7 16 6 15 18 15 18 10 0 -6 -16 -4 -17 9 -6
12 10 15 10 15 -4 0 -10 -9 -16 -25 -16 -44 0 -131 52 -119 71 3 5 -1 7 -8 4
-17 -6 -53 50 -68 106 -31 115 51 253 171 287 48 14 54 10 51 -33z m42 -420
c3 -8 1 -15 -4 -15 -6 0 -10 7 -10 15 0 8 2 15 4 15 2 0 6 -7 10 -15z"/>
<path d="M693 4485 c-39 -17 -73 -68 -73 -110 0 -63 63 -125 127 -125 69 0
132 75 119 143 -10 54 -73 108 -124 107 -9 -1 -32 -7 -49 -15z"/>
<path d="M553 4383 c-49 -6 -40 -23 13 -23 31 0 44 4 42 12 -5 14 -13 16 -55
11z"/>
<path d="M890 4381 c-12 -9 -12 -11 2 -16 23 -9 83 -2 83 10 0 13 -66 18 -85
6z"/>
<path d="M826 4185 c4 -8 10 -15 15 -15 4 0 6 7 3 15 -4 8 -10 15 -15 15 -4 0
-6 -7 -3 -15z"/>
<path d="M4430 4463 c-55 -21 -81 -83 -56 -132 32 -60 99 -70 148 -21 26 27
30 36 25 67 -10 59 -71 104 -117 86z m72 -40 c22 -20 23 -70 1 -95 -21 -23
-75 -24 -96 0 -8 9 -18 29 -22 44 -14 54 72 92 117 51z"/>
<path d="M4437 4393 c-12 -12 -7 -41 8 -47 22 -8 49 23 34 40 -12 15 -31 18
-42 7z"/>
<path d="M2070 4330 c0 -5 5 -10 10 -10 6 0 10 5 10 10 0 6 -4 10 -10 10 -5 0
-10 -4 -10 -10z"/>
<path d="M3090 4325 c0 -8 5 -15 10 -15 6 0 10 7 10 15 0 8 -4 15 -10 15 -5 0
-10 -7 -10 -15z"/>
<path d="M3489 4251 c-20 -16 -22 -23 -14 -47 14 -39 65 -46 89 -12 20 29 20
34 -4 58 -25 25 -41 25 -71 1z m59 0 c8 -4 12 -19 10 -32 -2 -19 -9 -24 -33
-24 -33 0 -45 25 -25 50 14 17 29 19 48 6z"/>
<path d="M3520 4235 c0 -8 5 -15 10 -15 6 0 10 7 10 15 0 8 -4 15 -10 15 -5 0
-10 -7 -10 -15z"/>
<path d="M3055 4179 c-10 -15 1 -23 20 -15 9 3 13 10 10 16 -8 13 -22 13 -30
-1z"/>
<path d="M1376 4088 c-13 -19 -14 -25 -2 -43 26 -40 86 -27 86 19 0 47 -57 63
-84 24z m59 -18 c0 -20 -5 -25 -25 -25 -28 0 -41 32 -18 46 23 15 43 5 43 -21z"/>
<path d="M1415 4070 c-3 -5 -1 -10 4 -10 6 0 11 5 11 10 0 6 -2 10 -4 10 -3 0
-8 -4 -11 -10z"/>
<path d="M2445 4123 c-27 -2 -53 -7 -57 -11 -4 -4 83 -7 192 -7 110 0 200 3
200 6 0 14 -206 21 -335 12z"/>
<path d="M4750 4045 c0 -8 5 -15 10 -15 6 0 10 7 10 15 0 8 -4 15 -10 15 -5 0
-10 -7 -10 -15z"/>
<path d="M4405 3863 c8 -18 18 -33 20 -33 10 0 4 16 -16 40 l-20 25 16 -32z"/>
<path d="M3870 3743 c16 -7 12 -33 -5 -33 -8 0 -15 8 -16 18 0 11 -2 12 -6 4
-7 -18 16 -42 33 -35 18 7 15 45 -4 49 -7 1 -8 0 -2 -3z"/>
<path d="M736 3703 c-11 -11 -6 -23 9 -23 8 0 15 4 15 9 0 13 -16 22 -24 14z"/>
<path d="M767 3427 c-22 -16 -13 -47 14 -47 25 0 36 28 17 46 -11 12 -17 12
-31 1z"/>
<path d="M4166 3537 c-12 -9 -17 -23 -14 -47 6 -62 76 -73 107 -18 30 53 -41
103 -93 65z m64 -42 c0 -21 -30 -31 -40 -14 -11 17 -3 29 21 29 10 0 19 -7 19
-15z"/>
<path d="M3855 3411 c-6 -19 13 -61 27 -61 16 0 19 23 8 51 -14 34 -26 37 -35
10z"/>
<path d="M1270 3370 c-14 -26 -13 -37 7 -44 21 -8 46 15 38 36 -10 25 -34 29
-45 8z m21 -7 c-11 -5 -11 -7 0 -14 11 -7 10 -9 -3 -9 -18 0 -23 11 -11 23 3
4 11 7 17 6 6 0 5 -3 -3 -6z"/>
<path d="M877 3243 c-14 -13 -6 -41 13 -46 23 -6 45 16 36 38 -5 15 -37 21
-49 8z"/>
<path d="M911 3115 c-18 -8 -42 -15 -53 -15 -10 0 -17 -4 -14 -9 3 -5 1 -23
-5 -40 -17 -47 -5 -61 16 -18 37 78 108 96 199 48 65 -34 66 -35 66 -21 0 17
-86 60 -131 65 -28 3 -56 0 -78 -10z"/>
<path d="M918 3074 c-30 -16 -58 -61 -58 -94 0 -53 57 -110 110 -110 54 0 110
57 110 112 0 13 -9 38 -20 56 -31 51 -89 65 -142 36z m79 -14 c54 -19 69 -85
28 -125 -49 -50 -135 -18 -135 50 0 31 27 66 60 78 8 3 15 6 16 6 1 1 15 -4
31 -9z"/>
<path d="M944 3006 c-10 -26 4 -48 28 -44 17 2 23 10 23 28 0 18 -6 26 -23 28
-13 2 -25 -3 -28 -12z m36 -5 c0 -6 -4 -13 -10 -16 -5 -3 -10 1 -10 9 0 9 5
16 10 16 6 0 10 -4 10 -9z"/>
<path d="M620 3140 c-11 -11 -20 -27 -20 -35 0 -23 37 -55 63 -55 49 0 74 61
39 93 -25 23 -58 21 -82 -3z m70 -15 c26 -32 -13 -81 -47 -59 -35 22 -23 74
17 74 10 0 23 -7 30 -15z"/>
<path d="M650 3110 c0 -5 5 -10 10 -10 6 0 10 5 10 10 0 6 -4 10 -10 10 -5 0
-10 -4 -10 -10z"/>
<path d="M4486 3144 c-34 -33 -7 -94 42 -94 24 0 62 32 62 53 0 47 -70 75
-104 41z m72 -16 c32 -32 -8 -80 -48 -58 -34 18 -19 70 20 70 9 0 21 -5 28
-12z"/>
<path d="M4525 3110 c-3 -5 -1 -10 4 -10 6 0 11 5 11 10 0 6 -2 10 -4 10 -3 0
-8 -4 -11 -10z"/>
<path d="M415 2950 c-4 -6 -3 -16 3 -22 6 -6 12 -6 17 2 4 6 3 16 -3 22 -6 6
-12 6 -17 -2z"/>
<path d="M4635 2720 c-3 -5 -1 -10 4 -10 6 0 11 -7 11 -16 0 -12 6 -15 26 -10
21 6 25 4 22 -11 -2 -11 -14 -19 -31 -21 -19 -2 -27 -9 -27 -23 0 -23 15 -25
24 -4 3 8 14 15 24 15 21 0 42 18 42 37 0 36 -78 71 -95 43z"/>
<path d="M472 2705 c-16 -34 -15 -50 2 -64 11 -9 15 -9 18 0 3 9 10 8 28 -2
14 -8 28 -18 31 -23 4 -5 15 -5 25 -1 17 8 17 9 -3 12 -13 3 -23 9 -23 14 0 5
-8 9 -18 9 -10 0 -24 6 -30 12 -10 10 -15 10 -22 -2 -8 -12 -10 -11 -10 6 0
23 42 50 60 39 8 -5 11 -3 8 6 -2 8 -16 15 -29 17 -19 2 -28 -4 -37 -23z"/>
<path d="M830 2635 c0 -43 4 -75 10 -75 6 0 10 20 10 45 l0 45 100 0 100 0 0
-39 c0 -22 5 -43 10 -46 6 -4 10 22 10 69 l0 76 -120 0 -120 0 0 -75z m230 40
c0 -12 -18 -15 -105 -15 -87 0 -105 3 -105 15 0 12 18 15 105 15 87 0 105 -3
105 -15z"/>
<path d="M2484 2375 c-100 -60 -76 -181 46 -234 60 -26 65 -50 18 -79 -94 -58
-210 -50 -279 19 -21 21 -50 61 -63 88 -30 58 -65 72 -114 47 -43 -22 -49 -46
-12 -47 17 -1 35 -2 42 -3 6 0 20 -19 31 -41 22 -43 170 -194 218 -222 16 -10
29 -25 29 -35 0 -37 44 -131 76 -164 19 -19 32 -39 29 -44 -3 -5 0 -7 8 -5 7
3 22 -5 33 -17 l19 -23 -25 20 -25 20 19 -22 c11 -13 25 -23 33 -23 7 0 13 -4
13 -10 0 -15 22 -12 45 7 16 12 16 14 3 10 -10 -3 -20 -1 -24 5 -4 6 -3 8 3 5
6 -4 22 3 35 16 14 12 34 28 44 35 11 7 12 10 4 6 -8 -3 -3 4 11 17 37 33 66
87 74 136 6 37 16 49 93 113 93 77 164 157 155 175 -4 5 -3 7 2 3 4 -4 18 6
31 22 17 19 30 26 44 23 28 -7 25 12 -6 36 -51 40 -83 24 -138 -71 -52 -92
-136 -130 -239 -108 -65 13 -124 56 -115 82 4 8 20 18 36 21 58 12 122 86 122
142 0 75 -70 124 -175 125 -46 0 -69 -6 -101 -25z m206 -20 c34 -31 8 -43 -99
-46 -88 -3 -95 -2 -102 18 -14 38 21 53 113 50 49 -2 72 -8 88 -22z m-15 -153
c-3 -3 -11 0 -18 7 -9 10 -8 11 6 5 10 -3 15 -9 12 -12z m-305 -227 c17 -9 30
-22 30 -31 0 -18 -26 -6 -54 25 -23 25 -16 27 24 6z m450 -20 c-27 -28 -40
-32 -40 -10 0 14 51 48 59 39 3 -2 -6 -15 -19 -29z m-280 -3 c32 -15 35 -21
38 -64 4 -60 22 -63 22 -4 0 51 7 57 79 81 67 22 74 14 67 -74 -4 -45 -13 -76
-30 -101 -65 -98 -211 -89 -261 17 -21 44 -30 111 -21 149 6 23 10 26 39 20
17 -3 47 -14 67 -24z"/>
<path d="M1540 2590 c0 -5 5 -10 10 -10 6 0 10 5 10 10 0 6 -4 10 -10 10 -5 0
-10 -4 -10 -10z"/>
<path d="M720 2585 c-18 -21 -5 -47 22 -43 26 3 37 36 16 49 -18 12 -24 11
-38 -6z m38 -17 c-3 -7 -11 -13 -18 -13 -7 0 -15 6 -17 13 -3 7 4 12 17 12 13
0 20 -5 18 -12z"/>
<path d="M855 2490 c-3 -5 -1 -10 4 -10 6 0 11 5 11 10 0 6 -2 10 -4 10 -3 0
-8 -4 -11 -10z"/>
<path d="M751 2306 c-8 -10 -7 -17 3 -26 17 -13 36 -6 36 15 0 19 -27 26 -39
11z m29 -17 c0 -5 -4 -9 -10 -9 -5 0 -10 7 -10 16 0 8 5 12 10 9 6 -3 10 -10
10 -16z"/>
<path d="M4425 2310 c-4 -6 -3 -16 3 -22 6 -6 12 -6 17 2 4 6 3 16 -3 22 -6 6
-12 6 -17 -2z"/>
<path d="M4214 2150 c-87 -35 -62 -170 31 -170 95 0 116 124 28 169 -25 13
-30 13 -59 1z m73 -25 c28 -19 33 -46 17 -83 -27 -65 -116 -50 -122 20 -5 64
53 99 105 63z"/>
<path d="M4230 2065 c-15 -18 -5 -35 20 -35 10 0 22 5 25 10 7 11 -12 40 -25
40 -4 0 -13 -7 -20 -15z"/>
<path d="M909 2140 l-24 -20 30 15 c41 20 49 19 86 -12 30 -25 31 -26 20 -5
-12 22 -48 42 -76 42 -7 0 -23 -9 -36 -20z"/>
<path d="M911 2111 c-40 -40 -15 -101 40 -101 30 0 43 9 59 39 10 20 9 27 -7
50 -26 33 -65 39 -92 12z m69 -26 c19 -23 3 -57 -27 -53 -34 4 -51 31 -34 52
17 20 45 21 61 1z"/>
<path d="M1030 2071 c0 -33 -11 -51 -42 -67 -31 -16 -61 -12 -93 15 -13 10
-12 7 4 -12 35 -38 81 -37 115 4 22 26 36 79 21 79 -3 0 -5 -9 -5 -19z"/>
<path d="M3871 1584 c-17 -14 -36 -43 -42 -64 -10 -33 -9 -44 10 -83 49 -101
178 -101 222 -1 24 54 16 95 -26 140 -29 30 -38 34 -83 34 -40 0 -57 -6 -81
-26z m92 9 c-7 -2 -19 -2 -25 0 -7 3 -2 5 12 5 14 0 19 -2 13 -5z m-79 -37
c-23 -23 -34 -43 -34 -64 0 -33 32 -79 64 -92 15 -6 16 -9 5 -9 -20 -1 -66 43
-75 71 -10 34 5 86 33 108 40 31 45 24 7 -14z m139 10 c30 -28 42 -65 33 -102
-8 -31 -52 -74 -75 -73 -11 0 -10 3 5 9 32 13 64 59 64 92 0 21 -11 41 -34 64
-39 39 -33 47 7 10z m-83 -29 c-44 -22 -36 -97 11 -97 11 0 29 15 40 33 17 27
20 28 14 7 -17 -63 -91 -66 -109 -4 -8 25 27 74 52 74 12 0 9 -4 -8 -13z m35
-47 c0 -18 -6 -26 -23 -28 -13 -2 -25 3 -28 12 -10 26 4 48 28 44 17 -2 23
-10 23 -28z"/>
<path d="M1203 1603 c-32 -6 -79 -56 -87 -93 -7 -36 12 -86 42 -114 12 -10 41
-21 65 -23 38 -5 48 -1 80 26 19 18 39 45 42 61 18 82 -59 158 -142 143z m97
-42 c36 -36 46 -73 29 -112 -14 -35 -62 -69 -97 -69 -58 0 -101 46 -102 108 0
93 106 138 170 73z"/>
<path d="M1196 1524 c-37 -37 -1 -103 49 -90 15 4 30 17 36 33 20 53 -45 98
-85 57z m47 -45 c4 -16 3 -18 -9 -8 -16 13 -19 29 -5 29 5 0 11 -9 14 -21z"/>
<path d="M4220 1330 c0 -5 5 -10 11 -10 5 0 7 5 4 10 -3 6 -8 10 -11 10 -2 0
-4 -4 -4 -10z"/>
<path d="M4205 1300 c3 -5 8 -10 11 -10 2 0 4 5 4 10 0 6 -5 10 -11 10 -5 0
-7 -4 -4 -10z"/>
<path d="M4175 1250 c3 -5 8 -10 11 -10 2 0 4 5 4 10 0 6 -5 10 -11 10 -5 0
-7 -4 -4 -10z"/>
<path d="M3765 1136 c-23 -34 -5 -69 32 -64 37 4 42 28 7 25 -20 -1 -29 3 -32
16 -5 25 28 34 44 12 17 -23 33 -11 18 13 -17 27 -51 26 -69 -2z"/>
<path d="M1375 1121 c-3 -5 -1 -12 5 -16 5 -3 10 1 10 9 0 18 -6 21 -15 7z"/>
<path d="M892 1058 c6 -18 28 -21 28 -4 0 9 -7 16 -16 16 -9 0 -14 -5 -12 -12z"/>
<path d="M926 1022 c-7 -12 22 -38 31 -28 4 3 0 14 -9 22 -9 10 -18 12 -22 6z"/>
<path d="M4270 1055 c0 -8 5 -15 10 -15 6 0 10 7 10 15 0 8 -4 15 -10 15 -5 0
-10 -7 -10 -15z"/>
<path d="M4236 1014 c-11 -30 -6 -37 14 -19 11 10 17 22 14 26 -8 14 -21 11
-28 -7z"/>
<path d="M1359 833 c-12 -16 -12 -17 2 -6 9 7 20 9 24 5 5 -4 5 -1 1 6 -9 16
-11 15 -27 -5z"/>
<path d="M3800 836 c0 -9 7 -16 16 -16 17 0 14 22 -4 28 -7 2 -12 -3 -12 -12z"/>
<path d="M3723 795 c-9 -10 -10 -16 -2 -21 15 -9 36 13 24 25 -6 6 -15 4 -22
-4z"/>
<path d="M3690 760 c8 -15 8 -20 -1 -20 -7 0 -10 -3 -6 -6 3 -4 13 -4 22 0 13
5 13 9 3 26 -17 26 -32 26 -18 0z"/>
<path d="M654 711 c-18 -11 -44 -35 -59 -55 -25 -32 -27 -42 -23 -97 4 -54 8
-64 44 -100 65 -65 151 -71 228 -16 85 60 70 219 -26 268 -49 25 -123 25 -164
0z m157 -60 c33 -33 39 -45 39 -81 0 -34 -6 -48 -34 -76 -49 -49 -113 -49
-162 0 -26 26 -34 42 -34 70 0 50 23 90 62 109 54 27 86 22 129 -22z"/>
<path d="M700 590 c-22 -40 26 -80 58 -48 17 17 15 55 -4 62 -27 11 -43 7 -54
-14z"/>
<path d="M4530 665 l0 -65 110 0 110 0 0 65 0 65 -110 0 -110 0 0 -65z m198
-7 l-2 -53 -3 48 -4 47 -80 0 c-43 0 -79 -2 -79 -4 0 -2 23 -23 51 -45 l52
-41 -57 0 -56 0 0 50 0 50 90 0 90 0 -2 -52z"/>
<path d="M4690 530 c0 -5 5 -10 10 -10 14 0 12 -18 -2 -23 -7 -2 -5 -3 5 -2
21 4 22 -8 2 -25 -20 -16 -34 -3 -37 33 -3 32 -14 35 -23 6 -8 -24 19 -59 45
-59 40 0 56 61 20 80 -14 7 -20 7 -20 0z"/>
<path d="M4516 502 c-4 -6 -2 -20 3 -30 6 -11 7 -22 4 -26 -3 -3 3 -6 15 -6
22 0 52 34 52 59 0 11 -6 9 -20 -7 -26 -27 -29 -27 -39 0 -5 14 -10 17 -15 10z"/>
<path d="M1812 647 c-7 -8 -9 -16 -6 -19 9 -10 45 4 41 15 -5 17 -23 19 -35 4z"/>
<path d="M3335 651 c-8 -15 3 -31 21 -31 9 0 14 7 12 17 -4 20 -24 28 -33 14z"/>
<path d="M3300 634 c0 -18 35 -44 58 -44 12 0 22 4 22 9 0 5 -10 7 -21 4 -15
-4 -27 1 -40 18 -10 13 -19 19 -19 13z"/>
<path d="M1861 616 c-7 -8 -22 -17 -34 -19 -19 -4 -18 -4 4 -6 25 -1 58 23 47
34 -3 3 -11 -1 -17 -9z"/>
<path d="M3365 490 c3 -5 8 -10 11 -10 2 0 4 5 4 10 0 6 -5 10 -11 10 -5 0 -7
-4 -4 -10z"/>
<path d="M2964 476 c-10 -26 0 -51 21 -51 16 0 20 7 20 30 0 33 -30 49 -41 21z"/>
<path d="M2490 444 c0 -9 7 -14 17 -12 25 5 28 28 4 28 -12 0 -21 -6 -21 -16z"/>
<path d="M1448 386 c-35 -17 -38 -79 -4 -101 37 -25 80 -2 84 43 5 53 -33 81
-80 58z m53 -16 c23 -13 24 -37 2 -62 -20 -22 -31 -23 -55 -1 -22 20 -23 37
-2 57 18 19 28 20 55 6z"/>
<path d="M3660 387 c-37 -19 -41 -80 -6 -102 65 -43 131 46 70 94 -31 24 -31
25 -64 8z m58 -19 c19 -19 14 -56 -9 -68 -16 -9 -26 -8 -45 5 -28 18 -31 37
-8 59 18 19 45 21 62 4z"/>
<path d="M1240 325 c-18 -22 -1 -50 31 -50 20 0 24 5 24 30 0 23 -5 31 -21 33
-11 2 -27 -4 -34 -13z m40 -21 c0 -16 -16 -19 -25 -4 -8 13 4 32 16 25 5 -4 9
-13 9 -21z"/>
<path d="M1684 329 c-8 -14 11 -33 25 -25 16 10 13 36 -3 36 -8 0 -18 -5 -22
-11z"/>
<path d="M3435 330 c-8 -13 3 -30 20 -30 14 0 27 24 18 34 -10 9 -31 7 -38 -4z"/>
<path d="M208 200 c-25 -26 -29 -36 -24 -63 17 -91 156 -89 156 2 0 43 -9 60
-41 76 -41 22 -57 19 -91 -15z m86 -26 c20 -20 20 -38 0 -58 -30 -31 -74 -13
-74 31 0 38 47 55 74 27z"/>
<path d="M250 144 c0 -9 5 -14 12 -12 18 6 21 28 4 28 -9 0 -16 -7 -16 -16z"/>
<path d="M4894 218 c-24 -11 -44 -48 -44 -79 0 -33 44 -69 84 -69 79 0 106
109 35 145 -32 17 -46 18 -75 3z m64 -40 c34 -34 -6 -90 -48 -68 -35 19 -20
80 20 80 9 0 21 -5 28 -12z"/>
<path d="M4920 144 c0 -17 22 -14 28 4 2 7 -3 12 -12 12 -9 0 -16 -7 -16 -16z"/>
</g>
</svg>
